G04 (created by PCBNEW (2013-mar-13)-testing) date Wed 04 Dec 2013 03:02:40 PM PST*
%MOIN*%
G04 Gerber Fmt 3.4, Leading zero omitted, Abs format*
%FSLAX34Y34*%
G01*
G70*
G90*
G04 APERTURE LIST*
%ADD10C,0.005906*%
%ADD11R,0.025000X0.045000*%
%ADD12R,0.063000X0.063000*%
%ADD13C,0.063000*%
%ADD14R,0.036000X0.036000*%
%ADD15R,0.045000X0.025000*%
%ADD16C,0.076000*%
%ADD17C,0.125000*%
%ADD18C,0.100000*%
%ADD19R,0.048031X0.024409*%
%ADD20C,0.130000*%
%ADD21C,0.035000*%
%ADD22C,0.035000*%
%ADD23C,0.024992*%
%ADD24C,0.024402*%
%ADD25C,0.010000*%
G04 APERTURE END LIST*
G54D10*
G54D11*
X18000Y-16400D03*
X18600Y-16400D03*
X20700Y-14500D03*
X20100Y-14500D03*
G54D12*
X14311Y-11400D03*
G54D13*
X15689Y-11400D03*
G54D12*
X19311Y-11400D03*
G54D13*
X20689Y-11400D03*
G54D14*
X20700Y-16850D03*
X20700Y-16150D03*
X21500Y-16500D03*
G54D11*
X14800Y-18100D03*
X14200Y-18100D03*
X18000Y-17600D03*
X18600Y-17600D03*
X18600Y-15200D03*
X18000Y-15200D03*
G54D15*
X13400Y-16100D03*
X13400Y-15500D03*
G54D11*
X18000Y-18800D03*
X18600Y-18800D03*
G54D16*
X12516Y-22700D03*
X13500Y-22700D03*
X14484Y-22700D03*
G54D17*
X11570Y-21834D03*
X15430Y-21834D03*
G54D18*
X18730Y-21900D03*
X20600Y-21900D03*
X22470Y-21900D03*
G54D19*
X16015Y-15825D03*
X16015Y-16200D03*
X16015Y-16574D03*
X14984Y-16574D03*
X14984Y-16200D03*
X14984Y-15825D03*
G54D20*
X11000Y-19500D03*
X24000Y-11000D03*
X11000Y-11000D03*
X24000Y-19500D03*
G54D21*
X15151Y-17365D03*
X15689Y-18100D03*
G54D22*
X15200Y-18370D02*
X15200Y-18100D01*
X18730Y-21900D02*
X15200Y-18370D01*
X14800Y-18100D02*
X15200Y-18100D01*
G54D23*
X17999Y-17600D02*
X18000Y-17600D01*
G54D22*
X19310Y-11400D02*
X19310Y-11990D01*
X15554Y-17600D02*
X17999Y-17600D01*
X15200Y-17954D02*
X15554Y-17600D01*
X15200Y-18100D02*
X15200Y-17954D01*
X17999Y-16900D02*
X18000Y-16900D01*
X17999Y-17600D02*
X17999Y-16900D01*
X18000Y-16400D02*
X18000Y-16900D01*
X20100Y-12779D02*
X19310Y-11990D01*
X20100Y-14500D02*
X20100Y-12779D01*
X18000Y-16400D02*
X18000Y-16199D01*
G54D24*
X16479Y-16199D02*
X16478Y-16200D01*
X16531Y-16199D02*
X16479Y-16199D01*
X16015Y-16200D02*
X16478Y-16200D01*
G54D22*
X20100Y-14500D02*
X19699Y-14500D01*
X18000Y-16199D02*
X16531Y-16199D01*
X19699Y-14850D02*
X19699Y-14500D01*
X18680Y-15869D02*
X19699Y-14850D01*
X18329Y-15869D02*
X18680Y-15869D01*
X18000Y-16199D02*
X18329Y-15869D01*
X18600Y-16400D02*
X19000Y-16400D01*
G54D24*
X14468Y-16200D02*
X14984Y-16200D01*
G54D22*
X13900Y-15631D02*
X13900Y-15500D01*
X14468Y-16200D02*
X13900Y-15631D01*
X13400Y-15500D02*
X13650Y-15500D01*
X13650Y-15500D02*
X13900Y-15500D01*
X13650Y-12651D02*
X14310Y-11990D01*
X13650Y-15500D02*
X13650Y-12651D01*
X14310Y-11400D02*
X14310Y-11990D01*
X18600Y-18800D02*
X19000Y-18800D01*
X20700Y-16850D02*
X19450Y-16850D01*
X19450Y-16850D02*
X19000Y-16400D01*
X19450Y-18350D02*
X19450Y-16850D01*
X19000Y-18800D02*
X19450Y-18350D01*
X21680Y-21110D02*
X19665Y-21110D01*
X22470Y-21900D02*
X21680Y-21110D01*
X14521Y-22737D02*
X14484Y-22700D01*
X18989Y-22737D02*
X14521Y-22737D01*
X19665Y-22061D02*
X18989Y-22737D01*
X19665Y-21110D02*
X19665Y-22061D01*
X19665Y-19464D02*
X19665Y-21110D01*
X19000Y-18800D02*
X19665Y-19464D01*
G54D25*
X18600Y-17600D02*
X18324Y-17600D01*
X18324Y-18475D02*
X18324Y-17600D01*
X18000Y-18800D02*
X18324Y-18475D01*
X15625Y-16892D02*
X15151Y-17365D01*
X15625Y-16574D02*
X15625Y-16892D01*
X17025Y-18100D02*
X17724Y-18800D01*
X15689Y-18100D02*
X17025Y-18100D01*
X18000Y-18800D02*
X17724Y-18800D01*
X16015Y-16574D02*
X15625Y-16574D01*
X20904Y-16480D02*
X20700Y-16480D01*
X21254Y-16830D02*
X20904Y-16480D01*
X21747Y-16830D02*
X21254Y-16830D01*
X21847Y-16730D02*
X21747Y-16830D01*
X21847Y-11877D02*
X21847Y-16730D01*
X20892Y-10922D02*
X21847Y-11877D01*
X18943Y-10922D02*
X20892Y-10922D01*
X18600Y-11266D02*
X18943Y-10922D01*
X18600Y-15200D02*
X18600Y-11266D01*
X20700Y-16150D02*
X20700Y-16480D01*
X17032Y-15200D02*
X18000Y-15200D01*
X16406Y-15825D02*
X17032Y-15200D01*
X16015Y-15825D02*
X16406Y-15825D01*
X20689Y-14113D02*
X20700Y-14124D01*
X20689Y-11400D02*
X20689Y-14113D01*
X20700Y-14500D02*
X20700Y-14124D01*
X21500Y-15024D02*
X20975Y-14500D01*
X21500Y-16500D02*
X21500Y-15024D01*
X20700Y-14500D02*
X20975Y-14500D01*
X13598Y-16574D02*
X13400Y-16375D01*
X14984Y-16574D02*
X13598Y-16574D01*
X13400Y-16100D02*
X13400Y-16375D01*
X14200Y-21015D02*
X14200Y-18100D01*
X12515Y-22700D02*
X14200Y-21015D01*
X14984Y-15825D02*
X15374Y-15825D01*
X12967Y-23232D02*
X13500Y-22700D01*
X11855Y-23232D02*
X12967Y-23232D01*
X10781Y-22158D02*
X11855Y-23232D01*
X10781Y-20948D02*
X10781Y-22158D01*
X14689Y-17040D02*
X10781Y-20948D01*
X15094Y-17040D02*
X14689Y-17040D01*
X15374Y-16761D02*
X15094Y-17040D01*
X15374Y-15825D02*
X15374Y-16761D01*
G54D10*
G36*
X24750Y-24750D02*
X23422Y-24750D01*
X23422Y-21723D01*
X23282Y-21372D01*
X23268Y-21351D01*
X23092Y-21312D01*
X23057Y-21347D01*
X23057Y-21277D01*
X23018Y-21101D01*
X22671Y-20952D01*
X22293Y-20947D01*
X21942Y-21087D01*
X21921Y-21101D01*
X21882Y-21277D01*
X22470Y-21864D01*
X23057Y-21277D01*
X23057Y-21347D01*
X22505Y-21900D01*
X23092Y-22487D01*
X23268Y-22448D01*
X23417Y-22101D01*
X23422Y-21723D01*
X23422Y-24750D01*
X23057Y-24750D01*
X23057Y-22522D01*
X22470Y-21935D01*
X22434Y-21970D01*
X22434Y-21900D01*
X21847Y-21312D01*
X21671Y-21351D01*
X21522Y-21698D01*
X21517Y-22076D01*
X21657Y-22427D01*
X21671Y-22448D01*
X21847Y-22487D01*
X22434Y-21900D01*
X22434Y-21970D01*
X21882Y-22522D01*
X21921Y-22698D01*
X22268Y-22847D01*
X22646Y-22852D01*
X22997Y-22712D01*
X23018Y-22698D01*
X23057Y-22522D01*
X23057Y-24750D01*
X21250Y-24750D01*
X21250Y-21771D01*
X21151Y-21532D01*
X20968Y-21349D01*
X20729Y-21250D01*
X20675Y-21250D01*
X20675Y-17367D01*
X20675Y-16875D01*
X20182Y-16875D01*
X20070Y-16987D01*
X20070Y-17119D01*
X20138Y-17284D01*
X20265Y-17411D01*
X20430Y-17480D01*
X20562Y-17480D01*
X20675Y-17367D01*
X20675Y-21250D01*
X20471Y-21249D01*
X20232Y-21348D01*
X20049Y-21531D01*
X19950Y-21770D01*
X19949Y-22028D01*
X20048Y-22267D01*
X20231Y-22450D01*
X20470Y-22549D01*
X20728Y-22550D01*
X20967Y-22451D01*
X21150Y-22268D01*
X21249Y-22029D01*
X21250Y-21771D01*
X21250Y-24750D01*
X16205Y-24750D01*
X16205Y-21680D01*
X16087Y-21395D01*
X15869Y-21177D01*
X15584Y-21059D01*
X15276Y-21058D01*
X14991Y-21176D01*
X14773Y-21394D01*
X14655Y-21679D01*
X14654Y-21871D01*
X14326Y-21868D01*
X14020Y-21991D01*
X14007Y-22000D01*
X13983Y-22163D01*
X14484Y-22664D01*
X14489Y-22659D01*
X14524Y-22694D01*
X14519Y-22700D01*
X15020Y-23200D01*
X15183Y-23176D01*
X15312Y-22873D01*
X15314Y-22608D01*
X15583Y-22609D01*
X15868Y-22491D01*
X16086Y-22273D01*
X16204Y-21988D01*
X16205Y-21680D01*
X16205Y-24750D01*
X14984Y-24750D01*
X14984Y-23236D01*
X14484Y-22735D01*
X13983Y-23236D01*
X14007Y-23399D01*
X14310Y-23528D01*
X14641Y-23531D01*
X14947Y-23408D01*
X14960Y-23399D01*
X14984Y-23236D01*
X14984Y-24750D01*
X10250Y-24750D01*
X10250Y-19779D01*
X10321Y-19952D01*
X10546Y-20177D01*
X10840Y-20299D01*
X11147Y-20300D01*
X10640Y-20807D01*
X10596Y-20871D01*
X10581Y-20948D01*
X10581Y-22158D01*
X10596Y-22235D01*
X10640Y-22299D01*
X11713Y-23373D01*
X11778Y-23416D01*
X11855Y-23432D01*
X12967Y-23432D01*
X13044Y-23416D01*
X13109Y-23373D01*
X13294Y-23188D01*
X13394Y-23229D01*
X13604Y-23230D01*
X13774Y-23160D01*
X13775Y-23163D01*
X13784Y-23176D01*
X13947Y-23200D01*
X14448Y-22700D01*
X13947Y-22199D01*
X13784Y-22223D01*
X13777Y-22241D01*
X13605Y-22170D01*
X13395Y-22169D01*
X13282Y-22216D01*
X14341Y-21157D01*
X14384Y-21092D01*
X14384Y-21092D01*
X14400Y-21015D01*
X14400Y-18456D01*
X14409Y-18452D01*
X14452Y-18409D01*
X14475Y-18354D01*
X14475Y-18295D01*
X14475Y-18100D01*
X14499Y-18224D01*
X14525Y-18262D01*
X14525Y-18354D01*
X14547Y-18409D01*
X14590Y-18452D01*
X14645Y-18475D01*
X14704Y-18475D01*
X14895Y-18475D01*
X14899Y-18494D01*
X14970Y-18599D01*
X18097Y-21727D01*
X18080Y-21770D01*
X18079Y-22028D01*
X18178Y-22267D01*
X18361Y-22450D01*
X18600Y-22549D01*
X18858Y-22550D01*
X19097Y-22451D01*
X19280Y-22268D01*
X19379Y-22029D01*
X19380Y-21771D01*
X19281Y-21532D01*
X19175Y-21425D01*
X19175Y-19114D01*
X19175Y-18937D01*
X19175Y-18662D01*
X19175Y-18485D01*
X19175Y-16714D01*
X19175Y-16537D01*
X19062Y-16425D01*
X18625Y-16425D01*
X18625Y-16962D01*
X18737Y-17075D01*
X18814Y-17075D01*
X18979Y-17006D01*
X19106Y-16879D01*
X19175Y-16714D01*
X19175Y-18485D01*
X19106Y-18320D01*
X18979Y-18193D01*
X18814Y-18125D01*
X18737Y-18125D01*
X18625Y-18237D01*
X18625Y-18775D01*
X19062Y-18775D01*
X19175Y-18662D01*
X19175Y-18937D01*
X19062Y-18825D01*
X18625Y-18825D01*
X18625Y-19362D01*
X18737Y-19475D01*
X18814Y-19475D01*
X18979Y-19406D01*
X19106Y-19279D01*
X19175Y-19114D01*
X19175Y-21425D01*
X19098Y-21349D01*
X18859Y-21250D01*
X18601Y-21249D01*
X18557Y-21267D01*
X15715Y-18426D01*
X15754Y-18426D01*
X15873Y-18376D01*
X15949Y-18300D01*
X16943Y-18300D01*
X17583Y-18941D01*
X17648Y-18984D01*
X17648Y-18984D01*
X17724Y-19000D01*
X17725Y-19000D01*
X17725Y-19054D01*
X17747Y-19109D01*
X17790Y-19152D01*
X17845Y-19175D01*
X17904Y-19175D01*
X18050Y-19175D01*
X18093Y-19279D01*
X18220Y-19406D01*
X18385Y-19475D01*
X18462Y-19475D01*
X18575Y-19362D01*
X18575Y-18825D01*
X18567Y-18825D01*
X18567Y-18775D01*
X18575Y-18775D01*
X18575Y-18237D01*
X18524Y-18187D01*
X18524Y-17975D01*
X18754Y-17975D01*
X18809Y-17952D01*
X18852Y-17909D01*
X18875Y-17854D01*
X18875Y-17795D01*
X18875Y-17345D01*
X18852Y-17290D01*
X18809Y-17247D01*
X18754Y-17225D01*
X18695Y-17225D01*
X18445Y-17225D01*
X18390Y-17247D01*
X18347Y-17290D01*
X18325Y-17345D01*
X18325Y-17400D01*
X18324Y-17400D01*
X18324Y-17400D01*
X18324Y-17049D01*
X18385Y-17075D01*
X18462Y-17075D01*
X18575Y-16962D01*
X18575Y-16425D01*
X18567Y-16425D01*
X18567Y-16375D01*
X18575Y-16375D01*
X18575Y-16367D01*
X18625Y-16367D01*
X18625Y-16375D01*
X19062Y-16375D01*
X19175Y-16262D01*
X19175Y-16085D01*
X19106Y-15920D01*
X19098Y-15911D01*
X19929Y-15079D01*
X19929Y-15079D01*
X19929Y-15079D01*
X20000Y-14974D01*
X20019Y-14875D01*
X20254Y-14875D01*
X20309Y-14852D01*
X20352Y-14809D01*
X20375Y-14754D01*
X20375Y-14695D01*
X20375Y-14662D01*
X20400Y-14624D01*
X20425Y-14500D01*
X20425Y-14754D01*
X20447Y-14809D01*
X20490Y-14852D01*
X20545Y-14875D01*
X20604Y-14875D01*
X20854Y-14875D01*
X20909Y-14852D01*
X20952Y-14809D01*
X20966Y-14774D01*
X21300Y-15107D01*
X21300Y-16170D01*
X21290Y-16170D01*
X21235Y-16192D01*
X21192Y-16235D01*
X21170Y-16290D01*
X21170Y-16323D01*
X21134Y-16288D01*
X21030Y-16245D01*
X21030Y-15940D01*
X21007Y-15885D01*
X20964Y-15842D01*
X20909Y-15820D01*
X20850Y-15820D01*
X20490Y-15820D01*
X20435Y-15842D01*
X20392Y-15885D01*
X20370Y-15940D01*
X20370Y-15999D01*
X20370Y-16245D01*
X20265Y-16288D01*
X20138Y-16415D01*
X20070Y-16580D01*
X20070Y-16712D01*
X20182Y-16825D01*
X20675Y-16825D01*
X20675Y-16817D01*
X20725Y-16817D01*
X20725Y-16825D01*
X20732Y-16825D01*
X20732Y-16875D01*
X20725Y-16875D01*
X20725Y-17367D01*
X20837Y-17480D01*
X20969Y-17480D01*
X21134Y-17411D01*
X21261Y-17284D01*
X21330Y-17119D01*
X21330Y-17030D01*
X21747Y-17030D01*
X21824Y-17014D01*
X21889Y-16971D01*
X21988Y-16872D01*
X22032Y-16807D01*
X22032Y-16807D01*
X22047Y-16730D01*
X22047Y-11877D01*
X22032Y-11800D01*
X21988Y-11736D01*
X21034Y-10781D01*
X20969Y-10738D01*
X20892Y-10722D01*
X18943Y-10722D01*
X18867Y-10738D01*
X18802Y-10781D01*
X18458Y-11125D01*
X18415Y-11190D01*
X18400Y-11266D01*
X18400Y-14843D01*
X18390Y-14847D01*
X18347Y-14890D01*
X18325Y-14945D01*
X18325Y-15004D01*
X18325Y-15454D01*
X18347Y-15509D01*
X18382Y-15544D01*
X18329Y-15544D01*
X18329Y-15544D01*
X18204Y-15569D01*
X18099Y-15640D01*
X17865Y-15874D01*
X16640Y-15874D01*
X17114Y-15400D01*
X17725Y-15400D01*
X17725Y-15454D01*
X17747Y-15509D01*
X17790Y-15552D01*
X17845Y-15575D01*
X17904Y-15575D01*
X18154Y-15575D01*
X18209Y-15552D01*
X18252Y-15509D01*
X18275Y-15454D01*
X18275Y-15395D01*
X18275Y-14945D01*
X18252Y-14890D01*
X18209Y-14847D01*
X18154Y-14825D01*
X18095Y-14825D01*
X17845Y-14825D01*
X17790Y-14847D01*
X17747Y-14890D01*
X17725Y-14945D01*
X17725Y-15000D01*
X17032Y-15000D01*
X16955Y-15015D01*
X16890Y-15058D01*
X16356Y-15592D01*
X16340Y-15576D01*
X16285Y-15553D01*
X16226Y-15553D01*
X16154Y-15553D01*
X16154Y-11307D01*
X16083Y-11136D01*
X15952Y-11006D01*
X15781Y-10935D01*
X15596Y-10934D01*
X15425Y-11005D01*
X15295Y-11136D01*
X15224Y-11307D01*
X15223Y-11492D01*
X15294Y-11663D01*
X15425Y-11793D01*
X15596Y-11864D01*
X15781Y-11865D01*
X15952Y-11794D01*
X16082Y-11663D01*
X16153Y-11492D01*
X16154Y-11307D01*
X16154Y-15553D01*
X15745Y-15553D01*
X15690Y-15576D01*
X15648Y-15618D01*
X15625Y-15674D01*
X15625Y-15733D01*
X15625Y-15870D01*
X15605Y-15823D01*
X15566Y-15783D01*
X15559Y-15749D01*
X15515Y-15684D01*
X15451Y-15641D01*
X15374Y-15625D01*
X15354Y-15625D01*
X15351Y-15618D01*
X15309Y-15576D01*
X15254Y-15553D01*
X15194Y-15553D01*
X15076Y-15553D01*
X15076Y-11804D01*
X15076Y-11625D01*
X15076Y-11537D01*
X15076Y-11262D01*
X15076Y-11174D01*
X15076Y-10995D01*
X15007Y-10830D01*
X14880Y-10703D01*
X14715Y-10635D01*
X14448Y-10635D01*
X14336Y-10747D01*
X14336Y-11375D01*
X14963Y-11375D01*
X15076Y-11262D01*
X15076Y-11537D01*
X14963Y-11425D01*
X14336Y-11425D01*
X14336Y-12052D01*
X14448Y-12165D01*
X14715Y-12165D01*
X14880Y-12096D01*
X15007Y-11969D01*
X15076Y-11804D01*
X15076Y-15553D01*
X14714Y-15553D01*
X14659Y-15576D01*
X14616Y-15618D01*
X14604Y-15648D01*
X14489Y-15696D01*
X14362Y-15823D01*
X14294Y-15988D01*
X14294Y-16062D01*
X14406Y-16175D01*
X14959Y-16175D01*
X14959Y-16167D01*
X15009Y-16167D01*
X15009Y-16175D01*
X15017Y-16175D01*
X15017Y-16225D01*
X15009Y-16225D01*
X15009Y-16232D01*
X14959Y-16232D01*
X14959Y-16225D01*
X14406Y-16225D01*
X14294Y-16337D01*
X14294Y-16374D01*
X14286Y-16374D01*
X14286Y-12052D01*
X14286Y-11425D01*
X14286Y-11375D01*
X14286Y-10747D01*
X14173Y-10635D01*
X13906Y-10635D01*
X13741Y-10703D01*
X13614Y-10830D01*
X13546Y-10995D01*
X13546Y-11174D01*
X13546Y-11262D01*
X13658Y-11375D01*
X14286Y-11375D01*
X14286Y-11425D01*
X13658Y-11425D01*
X13546Y-11537D01*
X13546Y-11625D01*
X13546Y-11804D01*
X13614Y-11969D01*
X13741Y-12096D01*
X13906Y-12165D01*
X14173Y-12165D01*
X14286Y-12052D01*
X14286Y-16374D01*
X13681Y-16374D01*
X13674Y-16366D01*
X13709Y-16352D01*
X13752Y-16309D01*
X13775Y-16254D01*
X13775Y-16195D01*
X13775Y-16049D01*
X13879Y-16006D01*
X14006Y-15879D01*
X14075Y-15714D01*
X14075Y-15637D01*
X14075Y-15362D01*
X14075Y-15285D01*
X14006Y-15120D01*
X13879Y-14993D01*
X13714Y-14925D01*
X13537Y-14925D01*
X13425Y-15037D01*
X13425Y-15475D01*
X13962Y-15475D01*
X14075Y-15362D01*
X14075Y-15637D01*
X13962Y-15525D01*
X13425Y-15525D01*
X13425Y-15532D01*
X13375Y-15532D01*
X13375Y-15525D01*
X13375Y-15475D01*
X13375Y-15037D01*
X13262Y-14925D01*
X13085Y-14925D01*
X12920Y-14993D01*
X12793Y-15120D01*
X12725Y-15285D01*
X12725Y-15362D01*
X12837Y-15475D01*
X13375Y-15475D01*
X13375Y-15525D01*
X12837Y-15525D01*
X12725Y-15637D01*
X12725Y-15714D01*
X12793Y-15879D01*
X12920Y-16006D01*
X13025Y-16049D01*
X13025Y-16254D01*
X13047Y-16309D01*
X13090Y-16352D01*
X13145Y-16375D01*
X13200Y-16375D01*
X13200Y-16375D01*
X13215Y-16451D01*
X13258Y-16516D01*
X13457Y-16715D01*
X13522Y-16758D01*
X13598Y-16774D01*
X14614Y-16774D01*
X14616Y-16781D01*
X14659Y-16823D01*
X14701Y-16840D01*
X14689Y-16840D01*
X14612Y-16856D01*
X14591Y-16870D01*
X14547Y-16899D01*
X11799Y-19647D01*
X11800Y-19341D01*
X11678Y-19047D01*
X11453Y-18822D01*
X11159Y-18700D01*
X10841Y-18699D01*
X10547Y-18821D01*
X10322Y-19046D01*
X10250Y-19220D01*
X10250Y-11279D01*
X10321Y-11452D01*
X10546Y-11677D01*
X10840Y-11799D01*
X11158Y-11800D01*
X11452Y-11678D01*
X11677Y-11453D01*
X11799Y-11159D01*
X11800Y-10841D01*
X11678Y-10547D01*
X11453Y-10322D01*
X11279Y-10250D01*
X23720Y-10250D01*
X23547Y-10321D01*
X23322Y-10546D01*
X23200Y-10840D01*
X23199Y-11158D01*
X23321Y-11452D01*
X23546Y-11677D01*
X23840Y-11799D01*
X24158Y-11800D01*
X24452Y-11678D01*
X24677Y-11453D01*
X24750Y-11279D01*
X24750Y-19220D01*
X24678Y-19047D01*
X24453Y-18822D01*
X24159Y-18700D01*
X23841Y-18699D01*
X23547Y-18821D01*
X23322Y-19046D01*
X23200Y-19340D01*
X23199Y-19658D01*
X23321Y-19952D01*
X23546Y-20177D01*
X23840Y-20299D01*
X24158Y-20300D01*
X24452Y-20178D01*
X24677Y-19953D01*
X24750Y-19779D01*
X24750Y-24750D01*
X24750Y-24750D01*
G37*
G54D25*
X24750Y-24750D02*
X23422Y-24750D01*
X23422Y-21723D01*
X23282Y-21372D01*
X23268Y-21351D01*
X23092Y-21312D01*
X23057Y-21347D01*
X23057Y-21277D01*
X23018Y-21101D01*
X22671Y-20952D01*
X22293Y-20947D01*
X21942Y-21087D01*
X21921Y-21101D01*
X21882Y-21277D01*
X22470Y-21864D01*
X23057Y-21277D01*
X23057Y-21347D01*
X22505Y-21900D01*
X23092Y-22487D01*
X23268Y-22448D01*
X23417Y-22101D01*
X23422Y-21723D01*
X23422Y-24750D01*
X23057Y-24750D01*
X23057Y-22522D01*
X22470Y-21935D01*
X22434Y-21970D01*
X22434Y-21900D01*
X21847Y-21312D01*
X21671Y-21351D01*
X21522Y-21698D01*
X21517Y-22076D01*
X21657Y-22427D01*
X21671Y-22448D01*
X21847Y-22487D01*
X22434Y-21900D01*
X22434Y-21970D01*
X21882Y-22522D01*
X21921Y-22698D01*
X22268Y-22847D01*
X22646Y-22852D01*
X22997Y-22712D01*
X23018Y-22698D01*
X23057Y-22522D01*
X23057Y-24750D01*
X21250Y-24750D01*
X21250Y-21771D01*
X21151Y-21532D01*
X20968Y-21349D01*
X20729Y-21250D01*
X20675Y-21250D01*
X20675Y-17367D01*
X20675Y-16875D01*
X20182Y-16875D01*
X20070Y-16987D01*
X20070Y-17119D01*
X20138Y-17284D01*
X20265Y-17411D01*
X20430Y-17480D01*
X20562Y-17480D01*
X20675Y-17367D01*
X20675Y-21250D01*
X20471Y-21249D01*
X20232Y-21348D01*
X20049Y-21531D01*
X19950Y-21770D01*
X19949Y-22028D01*
X20048Y-22267D01*
X20231Y-22450D01*
X20470Y-22549D01*
X20728Y-22550D01*
X20967Y-22451D01*
X21150Y-22268D01*
X21249Y-22029D01*
X21250Y-21771D01*
X21250Y-24750D01*
X16205Y-24750D01*
X16205Y-21680D01*
X16087Y-21395D01*
X15869Y-21177D01*
X15584Y-21059D01*
X15276Y-21058D01*
X14991Y-21176D01*
X14773Y-21394D01*
X14655Y-21679D01*
X14654Y-21871D01*
X14326Y-21868D01*
X14020Y-21991D01*
X14007Y-22000D01*
X13983Y-22163D01*
X14484Y-22664D01*
X14489Y-22659D01*
X14524Y-22694D01*
X14519Y-22700D01*
X15020Y-23200D01*
X15183Y-23176D01*
X15312Y-22873D01*
X15314Y-22608D01*
X15583Y-22609D01*
X15868Y-22491D01*
X16086Y-22273D01*
X16204Y-21988D01*
X16205Y-21680D01*
X16205Y-24750D01*
X14984Y-24750D01*
X14984Y-23236D01*
X14484Y-22735D01*
X13983Y-23236D01*
X14007Y-23399D01*
X14310Y-23528D01*
X14641Y-23531D01*
X14947Y-23408D01*
X14960Y-23399D01*
X14984Y-23236D01*
X14984Y-24750D01*
X10250Y-24750D01*
X10250Y-19779D01*
X10321Y-19952D01*
X10546Y-20177D01*
X10840Y-20299D01*
X11147Y-20300D01*
X10640Y-20807D01*
X10596Y-20871D01*
X10581Y-20948D01*
X10581Y-22158D01*
X10596Y-22235D01*
X10640Y-22299D01*
X11713Y-23373D01*
X11778Y-23416D01*
X11855Y-23432D01*
X12967Y-23432D01*
X13044Y-23416D01*
X13109Y-23373D01*
X13294Y-23188D01*
X13394Y-23229D01*
X13604Y-23230D01*
X13774Y-23160D01*
X13775Y-23163D01*
X13784Y-23176D01*
X13947Y-23200D01*
X14448Y-22700D01*
X13947Y-22199D01*
X13784Y-22223D01*
X13777Y-22241D01*
X13605Y-22170D01*
X13395Y-22169D01*
X13282Y-22216D01*
X14341Y-21157D01*
X14384Y-21092D01*
X14384Y-21092D01*
X14400Y-21015D01*
X14400Y-18456D01*
X14409Y-18452D01*
X14452Y-18409D01*
X14475Y-18354D01*
X14475Y-18295D01*
X14475Y-18100D01*
X14499Y-18224D01*
X14525Y-18262D01*
X14525Y-18354D01*
X14547Y-18409D01*
X14590Y-18452D01*
X14645Y-18475D01*
X14704Y-18475D01*
X14895Y-18475D01*
X14899Y-18494D01*
X14970Y-18599D01*
X18097Y-21727D01*
X18080Y-21770D01*
X18079Y-22028D01*
X18178Y-22267D01*
X18361Y-22450D01*
X18600Y-22549D01*
X18858Y-22550D01*
X19097Y-22451D01*
X19280Y-22268D01*
X19379Y-22029D01*
X19380Y-21771D01*
X19281Y-21532D01*
X19175Y-21425D01*
X19175Y-19114D01*
X19175Y-18937D01*
X19175Y-18662D01*
X19175Y-18485D01*
X19175Y-16714D01*
X19175Y-16537D01*
X19062Y-16425D01*
X18625Y-16425D01*
X18625Y-16962D01*
X18737Y-17075D01*
X18814Y-17075D01*
X18979Y-17006D01*
X19106Y-16879D01*
X19175Y-16714D01*
X19175Y-18485D01*
X19106Y-18320D01*
X18979Y-18193D01*
X18814Y-18125D01*
X18737Y-18125D01*
X18625Y-18237D01*
X18625Y-18775D01*
X19062Y-18775D01*
X19175Y-18662D01*
X19175Y-18937D01*
X19062Y-18825D01*
X18625Y-18825D01*
X18625Y-19362D01*
X18737Y-19475D01*
X18814Y-19475D01*
X18979Y-19406D01*
X19106Y-19279D01*
X19175Y-19114D01*
X19175Y-21425D01*
X19098Y-21349D01*
X18859Y-21250D01*
X18601Y-21249D01*
X18557Y-21267D01*
X15715Y-18426D01*
X15754Y-18426D01*
X15873Y-18376D01*
X15949Y-18300D01*
X16943Y-18300D01*
X17583Y-18941D01*
X17648Y-18984D01*
X17648Y-18984D01*
X17724Y-19000D01*
X17725Y-19000D01*
X17725Y-19054D01*
X17747Y-19109D01*
X17790Y-19152D01*
X17845Y-19175D01*
X17904Y-19175D01*
X18050Y-19175D01*
X18093Y-19279D01*
X18220Y-19406D01*
X18385Y-19475D01*
X18462Y-19475D01*
X18575Y-19362D01*
X18575Y-18825D01*
X18567Y-18825D01*
X18567Y-18775D01*
X18575Y-18775D01*
X18575Y-18237D01*
X18524Y-18187D01*
X18524Y-17975D01*
X18754Y-17975D01*
X18809Y-17952D01*
X18852Y-17909D01*
X18875Y-17854D01*
X18875Y-17795D01*
X18875Y-17345D01*
X18852Y-17290D01*
X18809Y-17247D01*
X18754Y-17225D01*
X18695Y-17225D01*
X18445Y-17225D01*
X18390Y-17247D01*
X18347Y-17290D01*
X18325Y-17345D01*
X18325Y-17400D01*
X18324Y-17400D01*
X18324Y-17400D01*
X18324Y-17049D01*
X18385Y-17075D01*
X18462Y-17075D01*
X18575Y-16962D01*
X18575Y-16425D01*
X18567Y-16425D01*
X18567Y-16375D01*
X18575Y-16375D01*
X18575Y-16367D01*
X18625Y-16367D01*
X18625Y-16375D01*
X19062Y-16375D01*
X19175Y-16262D01*
X19175Y-16085D01*
X19106Y-15920D01*
X19098Y-15911D01*
X19929Y-15079D01*
X19929Y-15079D01*
X19929Y-15079D01*
X20000Y-14974D01*
X20019Y-14875D01*
X20254Y-14875D01*
X20309Y-14852D01*
X20352Y-14809D01*
X20375Y-14754D01*
X20375Y-14695D01*
X20375Y-14662D01*
X20400Y-14624D01*
X20425Y-14500D01*
X20425Y-14754D01*
X20447Y-14809D01*
X20490Y-14852D01*
X20545Y-14875D01*
X20604Y-14875D01*
X20854Y-14875D01*
X20909Y-14852D01*
X20952Y-14809D01*
X20966Y-14774D01*
X21300Y-15107D01*
X21300Y-16170D01*
X21290Y-16170D01*
X21235Y-16192D01*
X21192Y-16235D01*
X21170Y-16290D01*
X21170Y-16323D01*
X21134Y-16288D01*
X21030Y-16245D01*
X21030Y-15940D01*
X21007Y-15885D01*
X20964Y-15842D01*
X20909Y-15820D01*
X20850Y-15820D01*
X20490Y-15820D01*
X20435Y-15842D01*
X20392Y-15885D01*
X20370Y-15940D01*
X20370Y-15999D01*
X20370Y-16245D01*
X20265Y-16288D01*
X20138Y-16415D01*
X20070Y-16580D01*
X20070Y-16712D01*
X20182Y-16825D01*
X20675Y-16825D01*
X20675Y-16817D01*
X20725Y-16817D01*
X20725Y-16825D01*
X20732Y-16825D01*
X20732Y-16875D01*
X20725Y-16875D01*
X20725Y-17367D01*
X20837Y-17480D01*
X20969Y-17480D01*
X21134Y-17411D01*
X21261Y-17284D01*
X21330Y-17119D01*
X21330Y-17030D01*
X21747Y-17030D01*
X21824Y-17014D01*
X21889Y-16971D01*
X21988Y-16872D01*
X22032Y-16807D01*
X22032Y-16807D01*
X22047Y-16730D01*
X22047Y-11877D01*
X22032Y-11800D01*
X21988Y-11736D01*
X21034Y-10781D01*
X20969Y-10738D01*
X20892Y-10722D01*
X18943Y-10722D01*
X18867Y-10738D01*
X18802Y-10781D01*
X18458Y-11125D01*
X18415Y-11190D01*
X18400Y-11266D01*
X18400Y-14843D01*
X18390Y-14847D01*
X18347Y-14890D01*
X18325Y-14945D01*
X18325Y-15004D01*
X18325Y-15454D01*
X18347Y-15509D01*
X18382Y-15544D01*
X18329Y-15544D01*
X18329Y-15544D01*
X18204Y-15569D01*
X18099Y-15640D01*
X17865Y-15874D01*
X16640Y-15874D01*
X17114Y-15400D01*
X17725Y-15400D01*
X17725Y-15454D01*
X17747Y-15509D01*
X17790Y-15552D01*
X17845Y-15575D01*
X17904Y-15575D01*
X18154Y-15575D01*
X18209Y-15552D01*
X18252Y-15509D01*
X18275Y-15454D01*
X18275Y-15395D01*
X18275Y-14945D01*
X18252Y-14890D01*
X18209Y-14847D01*
X18154Y-14825D01*
X18095Y-14825D01*
X17845Y-14825D01*
X17790Y-14847D01*
X17747Y-14890D01*
X17725Y-14945D01*
X17725Y-15000D01*
X17032Y-15000D01*
X16955Y-15015D01*
X16890Y-15058D01*
X16356Y-15592D01*
X16340Y-15576D01*
X16285Y-15553D01*
X16226Y-15553D01*
X16154Y-15553D01*
X16154Y-11307D01*
X16083Y-11136D01*
X15952Y-11006D01*
X15781Y-10935D01*
X15596Y-10934D01*
X15425Y-11005D01*
X15295Y-11136D01*
X15224Y-11307D01*
X15223Y-11492D01*
X15294Y-11663D01*
X15425Y-11793D01*
X15596Y-11864D01*
X15781Y-11865D01*
X15952Y-11794D01*
X16082Y-11663D01*
X16153Y-11492D01*
X16154Y-11307D01*
X16154Y-15553D01*
X15745Y-15553D01*
X15690Y-15576D01*
X15648Y-15618D01*
X15625Y-15674D01*
X15625Y-15733D01*
X15625Y-15870D01*
X15605Y-15823D01*
X15566Y-15783D01*
X15559Y-15749D01*
X15515Y-15684D01*
X15451Y-15641D01*
X15374Y-15625D01*
X15354Y-15625D01*
X15351Y-15618D01*
X15309Y-15576D01*
X15254Y-15553D01*
X15194Y-15553D01*
X15076Y-15553D01*
X15076Y-11804D01*
X15076Y-11625D01*
X15076Y-11537D01*
X15076Y-11262D01*
X15076Y-11174D01*
X15076Y-10995D01*
X15007Y-10830D01*
X14880Y-10703D01*
X14715Y-10635D01*
X14448Y-10635D01*
X14336Y-10747D01*
X14336Y-11375D01*
X14963Y-11375D01*
X15076Y-11262D01*
X15076Y-11537D01*
X14963Y-11425D01*
X14336Y-11425D01*
X14336Y-12052D01*
X14448Y-12165D01*
X14715Y-12165D01*
X14880Y-12096D01*
X15007Y-11969D01*
X15076Y-11804D01*
X15076Y-15553D01*
X14714Y-15553D01*
X14659Y-15576D01*
X14616Y-15618D01*
X14604Y-15648D01*
X14489Y-15696D01*
X14362Y-15823D01*
X14294Y-15988D01*
X14294Y-16062D01*
X14406Y-16175D01*
X14959Y-16175D01*
X14959Y-16167D01*
X15009Y-16167D01*
X15009Y-16175D01*
X15017Y-16175D01*
X15017Y-16225D01*
X15009Y-16225D01*
X15009Y-16232D01*
X14959Y-16232D01*
X14959Y-16225D01*
X14406Y-16225D01*
X14294Y-16337D01*
X14294Y-16374D01*
X14286Y-16374D01*
X14286Y-12052D01*
X14286Y-11425D01*
X14286Y-11375D01*
X14286Y-10747D01*
X14173Y-10635D01*
X13906Y-10635D01*
X13741Y-10703D01*
X13614Y-10830D01*
X13546Y-10995D01*
X13546Y-11174D01*
X13546Y-11262D01*
X13658Y-11375D01*
X14286Y-11375D01*
X14286Y-11425D01*
X13658Y-11425D01*
X13546Y-11537D01*
X13546Y-11625D01*
X13546Y-11804D01*
X13614Y-11969D01*
X13741Y-12096D01*
X13906Y-12165D01*
X14173Y-12165D01*
X14286Y-12052D01*
X14286Y-16374D01*
X13681Y-16374D01*
X13674Y-16366D01*
X13709Y-16352D01*
X13752Y-16309D01*
X13775Y-16254D01*
X13775Y-16195D01*
X13775Y-16049D01*
X13879Y-16006D01*
X14006Y-15879D01*
X14075Y-15714D01*
X14075Y-15637D01*
X14075Y-15362D01*
X14075Y-15285D01*
X14006Y-15120D01*
X13879Y-14993D01*
X13714Y-14925D01*
X13537Y-14925D01*
X13425Y-15037D01*
X13425Y-15475D01*
X13962Y-15475D01*
X14075Y-15362D01*
X14075Y-15637D01*
X13962Y-15525D01*
X13425Y-15525D01*
X13425Y-15532D01*
X13375Y-15532D01*
X13375Y-15525D01*
X13375Y-15475D01*
X13375Y-15037D01*
X13262Y-14925D01*
X13085Y-14925D01*
X12920Y-14993D01*
X12793Y-15120D01*
X12725Y-15285D01*
X12725Y-15362D01*
X12837Y-15475D01*
X13375Y-15475D01*
X13375Y-15525D01*
X12837Y-15525D01*
X12725Y-15637D01*
X12725Y-15714D01*
X12793Y-15879D01*
X12920Y-16006D01*
X13025Y-16049D01*
X13025Y-16254D01*
X13047Y-16309D01*
X13090Y-16352D01*
X13145Y-16375D01*
X13200Y-16375D01*
X13200Y-16375D01*
X13215Y-16451D01*
X13258Y-16516D01*
X13457Y-16715D01*
X13522Y-16758D01*
X13598Y-16774D01*
X14614Y-16774D01*
X14616Y-16781D01*
X14659Y-16823D01*
X14701Y-16840D01*
X14689Y-16840D01*
X14612Y-16856D01*
X14591Y-16870D01*
X14547Y-16899D01*
X11799Y-19647D01*
X11800Y-19341D01*
X11678Y-19047D01*
X11453Y-18822D01*
X11159Y-18700D01*
X10841Y-18699D01*
X10547Y-18821D01*
X10322Y-19046D01*
X10250Y-19220D01*
X10250Y-11279D01*
X10321Y-11452D01*
X10546Y-11677D01*
X10840Y-11799D01*
X11158Y-11800D01*
X11452Y-11678D01*
X11677Y-11453D01*
X11799Y-11159D01*
X11800Y-10841D01*
X11678Y-10547D01*
X11453Y-10322D01*
X11279Y-10250D01*
X23720Y-10250D01*
X23547Y-10321D01*
X23322Y-10546D01*
X23200Y-10840D01*
X23199Y-11158D01*
X23321Y-11452D01*
X23546Y-11677D01*
X23840Y-11799D01*
X24158Y-11800D01*
X24452Y-11678D01*
X24677Y-11453D01*
X24750Y-11279D01*
X24750Y-19220D01*
X24678Y-19047D01*
X24453Y-18822D01*
X24159Y-18700D01*
X23841Y-18699D01*
X23547Y-18821D01*
X23322Y-19046D01*
X23200Y-19340D01*
X23199Y-19658D01*
X23321Y-19952D01*
X23546Y-20177D01*
X23840Y-20299D01*
X24158Y-20300D01*
X24452Y-20178D01*
X24677Y-19953D01*
X24750Y-19779D01*
X24750Y-24750D01*
M02*
