G04 (created by PCBNEW (2013-mar-13)-testing) date Wed 04 Dec 2013 03:02:40 PM PST*
%MOIN*%
G04 Gerber Fmt 3.4, Leading zero omitted, Abs format*
%FSLAX34Y34*%
G01*
G70*
G90*
G04 APERTURE LIST*
%ADD10C,0.005906*%
%ADD11R,0.063000X0.063000*%
%ADD12C,0.063000*%
%ADD13C,0.076000*%
%ADD14C,0.125000*%
%ADD15C,0.100000*%
%ADD16C,0.130000*%
%ADD17C,0.035000*%
%ADD18C,0.035000*%
%ADD19C,0.010000*%
G04 APERTURE END LIST*
G54D10*
G54D11*
X14311Y-11400D03*
G54D12*
X15689Y-11400D03*
G54D11*
X19311Y-11400D03*
G54D12*
X20689Y-11400D03*
G54D13*
X12516Y-22700D03*
X13500Y-22700D03*
X14484Y-22700D03*
G54D14*
X11570Y-21834D03*
X15430Y-21834D03*
G54D15*
X18730Y-21900D03*
X20600Y-21900D03*
X22470Y-21900D03*
G54D16*
X11000Y-19500D03*
X24000Y-11000D03*
X11000Y-11000D03*
X24000Y-19500D03*
G54D17*
X15151Y-17365D03*
X15689Y-18100D03*
G54D18*
X14310Y-22526D02*
X14484Y-22700D01*
X14310Y-11400D02*
X14310Y-22526D01*
X20600Y-16310D02*
X15689Y-11400D01*
X20600Y-21900D02*
X20600Y-16310D01*
G54D19*
X15689Y-17904D02*
X15151Y-17365D01*
X15689Y-18100D02*
X15689Y-17904D01*
G54D10*
G36*
X24750Y-24750D02*
X23422Y-24750D01*
X23422Y-21723D01*
X23282Y-21372D01*
X23268Y-21351D01*
X23092Y-21312D01*
X23057Y-21347D01*
X23057Y-21277D01*
X23018Y-21101D01*
X22671Y-20952D01*
X22293Y-20947D01*
X21942Y-21087D01*
X21921Y-21101D01*
X21882Y-21277D01*
X22470Y-21864D01*
X23057Y-21277D01*
X23057Y-21347D01*
X22505Y-21900D01*
X23092Y-22487D01*
X23268Y-22448D01*
X23417Y-22101D01*
X23422Y-21723D01*
X23422Y-24750D01*
X23057Y-24750D01*
X23057Y-22522D01*
X22470Y-21935D01*
X22434Y-21970D01*
X22434Y-21900D01*
X21847Y-21312D01*
X21671Y-21351D01*
X21522Y-21698D01*
X21517Y-22076D01*
X21657Y-22427D01*
X21671Y-22448D01*
X21847Y-22487D01*
X22434Y-21900D01*
X22434Y-21970D01*
X21882Y-22522D01*
X21921Y-22698D01*
X22268Y-22847D01*
X22646Y-22852D01*
X22997Y-22712D01*
X23018Y-22698D01*
X23057Y-22522D01*
X23057Y-24750D01*
X21250Y-24750D01*
X21250Y-21771D01*
X21154Y-21538D01*
X21154Y-11307D01*
X21083Y-11136D01*
X20952Y-11006D01*
X20781Y-10935D01*
X20596Y-10934D01*
X20425Y-11005D01*
X20295Y-11136D01*
X20224Y-11307D01*
X20223Y-11492D01*
X20294Y-11663D01*
X20425Y-11793D01*
X20596Y-11864D01*
X20781Y-11865D01*
X20952Y-11794D01*
X21082Y-11663D01*
X21153Y-11492D01*
X21154Y-11307D01*
X21154Y-21538D01*
X21151Y-21532D01*
X20968Y-21349D01*
X20925Y-21331D01*
X20925Y-16310D01*
X20925Y-16310D01*
X20925Y-16310D01*
X20900Y-16186D01*
X20829Y-16081D01*
X20829Y-16081D01*
X20829Y-16081D01*
X19776Y-15027D01*
X19776Y-11744D01*
X19776Y-11685D01*
X19776Y-11055D01*
X19753Y-11000D01*
X19710Y-10957D01*
X19655Y-10935D01*
X19596Y-10935D01*
X18966Y-10935D01*
X18911Y-10957D01*
X18868Y-11000D01*
X18846Y-11055D01*
X18846Y-11114D01*
X18846Y-11744D01*
X18868Y-11799D01*
X18911Y-11842D01*
X18966Y-11865D01*
X19025Y-11865D01*
X19655Y-11865D01*
X19710Y-11842D01*
X19753Y-11799D01*
X19776Y-11744D01*
X19776Y-15027D01*
X16153Y-11405D01*
X16154Y-11307D01*
X16083Y-11136D01*
X15952Y-11006D01*
X15781Y-10935D01*
X15596Y-10934D01*
X15425Y-11005D01*
X15295Y-11136D01*
X15224Y-11307D01*
X15223Y-11492D01*
X15294Y-11663D01*
X15425Y-11793D01*
X15596Y-11864D01*
X15694Y-11865D01*
X20275Y-16445D01*
X20275Y-21330D01*
X20232Y-21348D01*
X20049Y-21531D01*
X19950Y-21770D01*
X19949Y-22028D01*
X20048Y-22267D01*
X20231Y-22450D01*
X20470Y-22549D01*
X20728Y-22550D01*
X20967Y-22451D01*
X21150Y-22268D01*
X21249Y-22029D01*
X21250Y-21771D01*
X21250Y-24750D01*
X19380Y-24750D01*
X19380Y-21771D01*
X19281Y-21532D01*
X19098Y-21349D01*
X18859Y-21250D01*
X18601Y-21249D01*
X18362Y-21348D01*
X18179Y-21531D01*
X18080Y-21770D01*
X18079Y-22028D01*
X18178Y-22267D01*
X18361Y-22450D01*
X18600Y-22549D01*
X18858Y-22550D01*
X19097Y-22451D01*
X19280Y-22268D01*
X19379Y-22029D01*
X19380Y-21771D01*
X19380Y-24750D01*
X16205Y-24750D01*
X16205Y-21680D01*
X16087Y-21395D01*
X16014Y-21322D01*
X16014Y-18036D01*
X15965Y-17917D01*
X15874Y-17825D01*
X15872Y-17825D01*
X15831Y-17762D01*
X15476Y-17408D01*
X15476Y-17301D01*
X15427Y-17182D01*
X15335Y-17090D01*
X15216Y-17041D01*
X15087Y-17040D01*
X15076Y-17045D01*
X15076Y-11804D01*
X15076Y-11625D01*
X15076Y-11537D01*
X15076Y-11262D01*
X15076Y-11174D01*
X15076Y-10995D01*
X15007Y-10830D01*
X14880Y-10703D01*
X14715Y-10635D01*
X14448Y-10635D01*
X14336Y-10747D01*
X14336Y-11375D01*
X14963Y-11375D01*
X15076Y-11262D01*
X15076Y-11537D01*
X14963Y-11425D01*
X14336Y-11425D01*
X14336Y-12052D01*
X14448Y-12165D01*
X14715Y-12165D01*
X14880Y-12096D01*
X15007Y-11969D01*
X15076Y-11804D01*
X15076Y-17045D01*
X14967Y-17090D01*
X14876Y-17181D01*
X14826Y-17301D01*
X14826Y-17430D01*
X14875Y-17549D01*
X14967Y-17641D01*
X15086Y-17690D01*
X15193Y-17691D01*
X15416Y-17914D01*
X15414Y-17916D01*
X15364Y-18036D01*
X15364Y-18165D01*
X15414Y-18284D01*
X15505Y-18376D01*
X15624Y-18425D01*
X15754Y-18426D01*
X15873Y-18376D01*
X15965Y-18285D01*
X16014Y-18165D01*
X16014Y-18036D01*
X16014Y-21322D01*
X15869Y-21177D01*
X15584Y-21059D01*
X15276Y-21058D01*
X14991Y-21176D01*
X14773Y-21394D01*
X14655Y-21679D01*
X14654Y-21871D01*
X14326Y-21868D01*
X14286Y-21884D01*
X14286Y-12052D01*
X14286Y-11425D01*
X14286Y-11375D01*
X14286Y-10747D01*
X14173Y-10635D01*
X13906Y-10635D01*
X13741Y-10703D01*
X13614Y-10830D01*
X13546Y-10995D01*
X13546Y-11174D01*
X13546Y-11262D01*
X13658Y-11375D01*
X14286Y-11375D01*
X14286Y-11425D01*
X13658Y-11425D01*
X13546Y-11537D01*
X13546Y-11625D01*
X13546Y-11804D01*
X13614Y-11969D01*
X13741Y-12096D01*
X13906Y-12165D01*
X14173Y-12165D01*
X14286Y-12052D01*
X14286Y-21884D01*
X14020Y-21991D01*
X14007Y-22000D01*
X13983Y-22163D01*
X14484Y-22664D01*
X14489Y-22659D01*
X14524Y-22694D01*
X14519Y-22700D01*
X15020Y-23200D01*
X15183Y-23176D01*
X15312Y-22873D01*
X15314Y-22608D01*
X15583Y-22609D01*
X15868Y-22491D01*
X16086Y-22273D01*
X16204Y-21988D01*
X16205Y-21680D01*
X16205Y-24750D01*
X14984Y-24750D01*
X14984Y-23236D01*
X14484Y-22735D01*
X14448Y-22770D01*
X14448Y-22700D01*
X13947Y-22199D01*
X13784Y-22223D01*
X13777Y-22241D01*
X13605Y-22170D01*
X13395Y-22169D01*
X13200Y-22250D01*
X13050Y-22399D01*
X13007Y-22502D01*
X12965Y-22400D01*
X12816Y-22250D01*
X12621Y-22170D01*
X12411Y-22169D01*
X12240Y-22240D01*
X12344Y-21988D01*
X12345Y-21680D01*
X12227Y-21395D01*
X12009Y-21177D01*
X11724Y-21059D01*
X11416Y-21058D01*
X11131Y-21176D01*
X10913Y-21394D01*
X10795Y-21679D01*
X10794Y-21987D01*
X10912Y-22272D01*
X11130Y-22490D01*
X11415Y-22608D01*
X11723Y-22609D01*
X12008Y-22491D01*
X12043Y-22456D01*
X11986Y-22594D01*
X11985Y-22804D01*
X12066Y-22999D01*
X12215Y-23149D01*
X12410Y-23229D01*
X12620Y-23230D01*
X12815Y-23149D01*
X12965Y-23000D01*
X13008Y-22897D01*
X13050Y-22999D01*
X13199Y-23149D01*
X13394Y-23229D01*
X13604Y-23230D01*
X13774Y-23160D01*
X13775Y-23163D01*
X13784Y-23176D01*
X13947Y-23200D01*
X14448Y-22700D01*
X14448Y-22770D01*
X13983Y-23236D01*
X14007Y-23399D01*
X14310Y-23528D01*
X14641Y-23531D01*
X14947Y-23408D01*
X14960Y-23399D01*
X14984Y-23236D01*
X14984Y-24750D01*
X10250Y-24750D01*
X10250Y-19779D01*
X10321Y-19952D01*
X10546Y-20177D01*
X10840Y-20299D01*
X11158Y-20300D01*
X11452Y-20178D01*
X11677Y-19953D01*
X11799Y-19659D01*
X11800Y-19341D01*
X11678Y-19047D01*
X11453Y-18822D01*
X11159Y-18700D01*
X10841Y-18699D01*
X10547Y-18821D01*
X10322Y-19046D01*
X10250Y-19220D01*
X10250Y-11279D01*
X10321Y-11452D01*
X10546Y-11677D01*
X10840Y-11799D01*
X11158Y-11800D01*
X11452Y-11678D01*
X11677Y-11453D01*
X11799Y-11159D01*
X11800Y-10841D01*
X11678Y-10547D01*
X11453Y-10322D01*
X11279Y-10250D01*
X23720Y-10250D01*
X23547Y-10321D01*
X23322Y-10546D01*
X23200Y-10840D01*
X23199Y-11158D01*
X23321Y-11452D01*
X23546Y-11677D01*
X23840Y-11799D01*
X24158Y-11800D01*
X24452Y-11678D01*
X24677Y-11453D01*
X24750Y-11279D01*
X24750Y-19220D01*
X24678Y-19047D01*
X24453Y-18822D01*
X24159Y-18700D01*
X23841Y-18699D01*
X23547Y-18821D01*
X23322Y-19046D01*
X23200Y-19340D01*
X23199Y-19658D01*
X23321Y-19952D01*
X23546Y-20177D01*
X23840Y-20299D01*
X24158Y-20300D01*
X24452Y-20178D01*
X24677Y-19953D01*
X24750Y-19779D01*
X24750Y-24750D01*
X24750Y-24750D01*
G37*
G54D19*
X24750Y-24750D02*
X23422Y-24750D01*
X23422Y-21723D01*
X23282Y-21372D01*
X23268Y-21351D01*
X23092Y-21312D01*
X23057Y-21347D01*
X23057Y-21277D01*
X23018Y-21101D01*
X22671Y-20952D01*
X22293Y-20947D01*
X21942Y-21087D01*
X21921Y-21101D01*
X21882Y-21277D01*
X22470Y-21864D01*
X23057Y-21277D01*
X23057Y-21347D01*
X22505Y-21900D01*
X23092Y-22487D01*
X23268Y-22448D01*
X23417Y-22101D01*
X23422Y-21723D01*
X23422Y-24750D01*
X23057Y-24750D01*
X23057Y-22522D01*
X22470Y-21935D01*
X22434Y-21970D01*
X22434Y-21900D01*
X21847Y-21312D01*
X21671Y-21351D01*
X21522Y-21698D01*
X21517Y-22076D01*
X21657Y-22427D01*
X21671Y-22448D01*
X21847Y-22487D01*
X22434Y-21900D01*
X22434Y-21970D01*
X21882Y-22522D01*
X21921Y-22698D01*
X22268Y-22847D01*
X22646Y-22852D01*
X22997Y-22712D01*
X23018Y-22698D01*
X23057Y-22522D01*
X23057Y-24750D01*
X21250Y-24750D01*
X21250Y-21771D01*
X21154Y-21538D01*
X21154Y-11307D01*
X21083Y-11136D01*
X20952Y-11006D01*
X20781Y-10935D01*
X20596Y-10934D01*
X20425Y-11005D01*
X20295Y-11136D01*
X20224Y-11307D01*
X20223Y-11492D01*
X20294Y-11663D01*
X20425Y-11793D01*
X20596Y-11864D01*
X20781Y-11865D01*
X20952Y-11794D01*
X21082Y-11663D01*
X21153Y-11492D01*
X21154Y-11307D01*
X21154Y-21538D01*
X21151Y-21532D01*
X20968Y-21349D01*
X20925Y-21331D01*
X20925Y-16310D01*
X20925Y-16310D01*
X20925Y-16310D01*
X20900Y-16186D01*
X20829Y-16081D01*
X20829Y-16081D01*
X20829Y-16081D01*
X19776Y-15027D01*
X19776Y-11744D01*
X19776Y-11685D01*
X19776Y-11055D01*
X19753Y-11000D01*
X19710Y-10957D01*
X19655Y-10935D01*
X19596Y-10935D01*
X18966Y-10935D01*
X18911Y-10957D01*
X18868Y-11000D01*
X18846Y-11055D01*
X18846Y-11114D01*
X18846Y-11744D01*
X18868Y-11799D01*
X18911Y-11842D01*
X18966Y-11865D01*
X19025Y-11865D01*
X19655Y-11865D01*
X19710Y-11842D01*
X19753Y-11799D01*
X19776Y-11744D01*
X19776Y-15027D01*
X16153Y-11405D01*
X16154Y-11307D01*
X16083Y-11136D01*
X15952Y-11006D01*
X15781Y-10935D01*
X15596Y-10934D01*
X15425Y-11005D01*
X15295Y-11136D01*
X15224Y-11307D01*
X15223Y-11492D01*
X15294Y-11663D01*
X15425Y-11793D01*
X15596Y-11864D01*
X15694Y-11865D01*
X20275Y-16445D01*
X20275Y-21330D01*
X20232Y-21348D01*
X20049Y-21531D01*
X19950Y-21770D01*
X19949Y-22028D01*
X20048Y-22267D01*
X20231Y-22450D01*
X20470Y-22549D01*
X20728Y-22550D01*
X20967Y-22451D01*
X21150Y-22268D01*
X21249Y-22029D01*
X21250Y-21771D01*
X21250Y-24750D01*
X19380Y-24750D01*
X19380Y-21771D01*
X19281Y-21532D01*
X19098Y-21349D01*
X18859Y-21250D01*
X18601Y-21249D01*
X18362Y-21348D01*
X18179Y-21531D01*
X18080Y-21770D01*
X18079Y-22028D01*
X18178Y-22267D01*
X18361Y-22450D01*
X18600Y-22549D01*
X18858Y-22550D01*
X19097Y-22451D01*
X19280Y-22268D01*
X19379Y-22029D01*
X19380Y-21771D01*
X19380Y-24750D01*
X16205Y-24750D01*
X16205Y-21680D01*
X16087Y-21395D01*
X16014Y-21322D01*
X16014Y-18036D01*
X15965Y-17917D01*
X15874Y-17825D01*
X15872Y-17825D01*
X15831Y-17762D01*
X15476Y-17408D01*
X15476Y-17301D01*
X15427Y-17182D01*
X15335Y-17090D01*
X15216Y-17041D01*
X15087Y-17040D01*
X15076Y-17045D01*
X15076Y-11804D01*
X15076Y-11625D01*
X15076Y-11537D01*
X15076Y-11262D01*
X15076Y-11174D01*
X15076Y-10995D01*
X15007Y-10830D01*
X14880Y-10703D01*
X14715Y-10635D01*
X14448Y-10635D01*
X14336Y-10747D01*
X14336Y-11375D01*
X14963Y-11375D01*
X15076Y-11262D01*
X15076Y-11537D01*
X14963Y-11425D01*
X14336Y-11425D01*
X14336Y-12052D01*
X14448Y-12165D01*
X14715Y-12165D01*
X14880Y-12096D01*
X15007Y-11969D01*
X15076Y-11804D01*
X15076Y-17045D01*
X14967Y-17090D01*
X14876Y-17181D01*
X14826Y-17301D01*
X14826Y-17430D01*
X14875Y-17549D01*
X14967Y-17641D01*
X15086Y-17690D01*
X15193Y-17691D01*
X15416Y-17914D01*
X15414Y-17916D01*
X15364Y-18036D01*
X15364Y-18165D01*
X15414Y-18284D01*
X15505Y-18376D01*
X15624Y-18425D01*
X15754Y-18426D01*
X15873Y-18376D01*
X15965Y-18285D01*
X16014Y-18165D01*
X16014Y-18036D01*
X16014Y-21322D01*
X15869Y-21177D01*
X15584Y-21059D01*
X15276Y-21058D01*
X14991Y-21176D01*
X14773Y-21394D01*
X14655Y-21679D01*
X14654Y-21871D01*
X14326Y-21868D01*
X14286Y-21884D01*
X14286Y-12052D01*
X14286Y-11425D01*
X14286Y-11375D01*
X14286Y-10747D01*
X14173Y-10635D01*
X13906Y-10635D01*
X13741Y-10703D01*
X13614Y-10830D01*
X13546Y-10995D01*
X13546Y-11174D01*
X13546Y-11262D01*
X13658Y-11375D01*
X14286Y-11375D01*
X14286Y-11425D01*
X13658Y-11425D01*
X13546Y-11537D01*
X13546Y-11625D01*
X13546Y-11804D01*
X13614Y-11969D01*
X13741Y-12096D01*
X13906Y-12165D01*
X14173Y-12165D01*
X14286Y-12052D01*
X14286Y-21884D01*
X14020Y-21991D01*
X14007Y-22000D01*
X13983Y-22163D01*
X14484Y-22664D01*
X14489Y-22659D01*
X14524Y-22694D01*
X14519Y-22700D01*
X15020Y-23200D01*
X15183Y-23176D01*
X15312Y-22873D01*
X15314Y-22608D01*
X15583Y-22609D01*
X15868Y-22491D01*
X16086Y-22273D01*
X16204Y-21988D01*
X16205Y-21680D01*
X16205Y-24750D01*
X14984Y-24750D01*
X14984Y-23236D01*
X14484Y-22735D01*
X14448Y-22770D01*
X14448Y-22700D01*
X13947Y-22199D01*
X13784Y-22223D01*
X13777Y-22241D01*
X13605Y-22170D01*
X13395Y-22169D01*
X13200Y-22250D01*
X13050Y-22399D01*
X13007Y-22502D01*
X12965Y-22400D01*
X12816Y-22250D01*
X12621Y-22170D01*
X12411Y-22169D01*
X12240Y-22240D01*
X12344Y-21988D01*
X12345Y-21680D01*
X12227Y-21395D01*
X12009Y-21177D01*
X11724Y-21059D01*
X11416Y-21058D01*
X11131Y-21176D01*
X10913Y-21394D01*
X10795Y-21679D01*
X10794Y-21987D01*
X10912Y-22272D01*
X11130Y-22490D01*
X11415Y-22608D01*
X11723Y-22609D01*
X12008Y-22491D01*
X12043Y-22456D01*
X11986Y-22594D01*
X11985Y-22804D01*
X12066Y-22999D01*
X12215Y-23149D01*
X12410Y-23229D01*
X12620Y-23230D01*
X12815Y-23149D01*
X12965Y-23000D01*
X13008Y-22897D01*
X13050Y-22999D01*
X13199Y-23149D01*
X13394Y-23229D01*
X13604Y-23230D01*
X13774Y-23160D01*
X13775Y-23163D01*
X13784Y-23176D01*
X13947Y-23200D01*
X14448Y-22700D01*
X14448Y-22770D01*
X13983Y-23236D01*
X14007Y-23399D01*
X14310Y-23528D01*
X14641Y-23531D01*
X14947Y-23408D01*
X14960Y-23399D01*
X14984Y-23236D01*
X14984Y-24750D01*
X10250Y-24750D01*
X10250Y-19779D01*
X10321Y-19952D01*
X10546Y-20177D01*
X10840Y-20299D01*
X11158Y-20300D01*
X11452Y-20178D01*
X11677Y-19953D01*
X11799Y-19659D01*
X11800Y-19341D01*
X11678Y-19047D01*
X11453Y-18822D01*
X11159Y-18700D01*
X10841Y-18699D01*
X10547Y-18821D01*
X10322Y-19046D01*
X10250Y-19220D01*
X10250Y-11279D01*
X10321Y-11452D01*
X10546Y-11677D01*
X10840Y-11799D01*
X11158Y-11800D01*
X11452Y-11678D01*
X11677Y-11453D01*
X11799Y-11159D01*
X11800Y-10841D01*
X11678Y-10547D01*
X11453Y-10322D01*
X11279Y-10250D01*
X23720Y-10250D01*
X23547Y-10321D01*
X23322Y-10546D01*
X23200Y-10840D01*
X23199Y-11158D01*
X23321Y-11452D01*
X23546Y-11677D01*
X23840Y-11799D01*
X24158Y-11800D01*
X24452Y-11678D01*
X24677Y-11453D01*
X24750Y-11279D01*
X24750Y-19220D01*
X24678Y-19047D01*
X24453Y-18822D01*
X24159Y-18700D01*
X23841Y-18699D01*
X23547Y-18821D01*
X23322Y-19046D01*
X23200Y-19340D01*
X23199Y-19658D01*
X23321Y-19952D01*
X23546Y-20177D01*
X23840Y-20299D01*
X24158Y-20300D01*
X24452Y-20178D01*
X24677Y-19953D01*
X24750Y-19779D01*
X24750Y-24750D01*
M02*
