G04 (created by PCBNEW (2013-mar-13)-testing) date Wed 04 Dec 2013 03:02:40 PM PST*
%MOIN*%
G04 Gerber Fmt 3.4, Leading zero omitted, Abs format*
%FSLAX34Y34*%
G01*
G70*
G90*
G04 APERTURE LIST*
%ADD10C,0.005906*%
%ADD11C,0.008000*%
%ADD12C,0.004700*%
%ADD13C,0.015000*%
%ADD14C,0.005000*%
%ADD15C,0.004500*%
G04 APERTURE END LIST*
G54D10*
G54D11*
X24080Y-17371D02*
X23680Y-17371D01*
X23680Y-17104D02*
X23680Y-17028D01*
X23700Y-16990D01*
X23738Y-16952D01*
X23814Y-16933D01*
X23947Y-16933D01*
X24023Y-16952D01*
X24061Y-16990D01*
X24080Y-17028D01*
X24080Y-17104D01*
X24061Y-17142D01*
X24023Y-17180D01*
X23947Y-17199D01*
X23814Y-17199D01*
X23738Y-17180D01*
X23700Y-17142D01*
X23680Y-17104D01*
X24080Y-16228D02*
X23890Y-16361D01*
X24080Y-16457D02*
X23680Y-16457D01*
X23680Y-16304D01*
X23700Y-16266D01*
X23719Y-16247D01*
X23757Y-16228D01*
X23814Y-16228D01*
X23852Y-16247D01*
X23871Y-16266D01*
X23890Y-16304D01*
X23890Y-16457D01*
X24080Y-15999D02*
X24061Y-16038D01*
X24042Y-16057D01*
X24004Y-16076D01*
X23890Y-16076D01*
X23852Y-16057D01*
X23833Y-16038D01*
X23814Y-15999D01*
X23814Y-15942D01*
X23833Y-15904D01*
X23852Y-15885D01*
X23890Y-15866D01*
X24004Y-15866D01*
X24042Y-15885D01*
X24061Y-15904D01*
X24080Y-15942D01*
X24080Y-15999D01*
X24080Y-15523D02*
X23680Y-15523D01*
X24061Y-15523D02*
X24080Y-15561D01*
X24080Y-15638D01*
X24061Y-15676D01*
X24042Y-15695D01*
X24004Y-15714D01*
X23890Y-15714D01*
X23852Y-15695D01*
X23833Y-15676D01*
X23814Y-15638D01*
X23814Y-15561D01*
X23833Y-15523D01*
X24061Y-15180D02*
X24080Y-15219D01*
X24080Y-15295D01*
X24061Y-15333D01*
X24023Y-15352D01*
X23871Y-15352D01*
X23833Y-15333D01*
X23814Y-15295D01*
X23814Y-15219D01*
X23833Y-15180D01*
X23871Y-15161D01*
X23909Y-15161D01*
X23947Y-15352D01*
X24080Y-14933D02*
X24061Y-14971D01*
X24042Y-14990D01*
X24004Y-15009D01*
X23890Y-15009D01*
X23852Y-14990D01*
X23833Y-14971D01*
X23814Y-14933D01*
X23814Y-14876D01*
X23833Y-14838D01*
X23852Y-14819D01*
X23890Y-14800D01*
X24004Y-14800D01*
X24042Y-14819D01*
X24061Y-14838D01*
X24080Y-14876D01*
X24080Y-14933D01*
X24080Y-14323D02*
X23680Y-14323D01*
X23814Y-14133D02*
X24080Y-14133D01*
X23852Y-14133D02*
X23833Y-14114D01*
X23814Y-14076D01*
X23814Y-14019D01*
X23833Y-13980D01*
X23871Y-13961D01*
X24080Y-13961D01*
X24061Y-13600D02*
X24080Y-13638D01*
X24080Y-13714D01*
X24061Y-13752D01*
X24042Y-13771D01*
X24004Y-13790D01*
X23890Y-13790D01*
X23852Y-13771D01*
X23833Y-13752D01*
X23814Y-13714D01*
X23814Y-13638D01*
X23833Y-13600D01*
X24042Y-13428D02*
X24061Y-13409D01*
X24080Y-13428D01*
X24061Y-13447D01*
X24042Y-13428D01*
X24080Y-13428D01*
X10771Y-17585D02*
X10790Y-17528D01*
X10809Y-17509D01*
X10847Y-17490D01*
X10904Y-17490D01*
X10942Y-17509D01*
X10961Y-17528D01*
X10980Y-17566D01*
X10980Y-17719D01*
X10580Y-17719D01*
X10580Y-17585D01*
X10600Y-17547D01*
X10619Y-17528D01*
X10657Y-17509D01*
X10695Y-17509D01*
X10733Y-17528D01*
X10752Y-17547D01*
X10771Y-17585D01*
X10771Y-17719D01*
X10980Y-17147D02*
X10771Y-17147D01*
X10733Y-17166D01*
X10714Y-17204D01*
X10714Y-17280D01*
X10733Y-17319D01*
X10961Y-17147D02*
X10980Y-17185D01*
X10980Y-17280D01*
X10961Y-17319D01*
X10923Y-17338D01*
X10885Y-17338D01*
X10847Y-17319D01*
X10828Y-17280D01*
X10828Y-17185D01*
X10809Y-17147D01*
X10961Y-16976D02*
X10980Y-16938D01*
X10980Y-16861D01*
X10961Y-16823D01*
X10923Y-16804D01*
X10904Y-16804D01*
X10866Y-16823D01*
X10847Y-16861D01*
X10847Y-16919D01*
X10828Y-16957D01*
X10790Y-16976D01*
X10771Y-16976D01*
X10733Y-16957D01*
X10714Y-16919D01*
X10714Y-16861D01*
X10733Y-16823D01*
X10980Y-16633D02*
X10714Y-16633D01*
X10580Y-16633D02*
X10600Y-16652D01*
X10619Y-16633D01*
X10600Y-16614D01*
X10580Y-16633D01*
X10619Y-16633D01*
X10961Y-16271D02*
X10980Y-16309D01*
X10980Y-16385D01*
X10961Y-16423D01*
X10942Y-16442D01*
X10904Y-16461D01*
X10790Y-16461D01*
X10752Y-16442D01*
X10733Y-16423D01*
X10714Y-16385D01*
X10714Y-16309D01*
X10733Y-16271D01*
X10580Y-15833D02*
X10580Y-15585D01*
X10733Y-15719D01*
X10733Y-15661D01*
X10752Y-15623D01*
X10771Y-15604D01*
X10809Y-15585D01*
X10904Y-15585D01*
X10942Y-15604D01*
X10961Y-15623D01*
X10980Y-15661D01*
X10980Y-15776D01*
X10961Y-15814D01*
X10942Y-15833D01*
X10580Y-15471D02*
X10980Y-15338D01*
X10580Y-15204D01*
X10580Y-15109D02*
X10580Y-14861D01*
X10733Y-14995D01*
X10733Y-14938D01*
X10752Y-14900D01*
X10771Y-14880D01*
X10809Y-14861D01*
X10904Y-14861D01*
X10942Y-14880D01*
X10961Y-14900D01*
X10980Y-14938D01*
X10980Y-15052D01*
X10961Y-15090D01*
X10942Y-15109D01*
X10961Y-14404D02*
X10980Y-14347D01*
X10980Y-14252D01*
X10961Y-14214D01*
X10942Y-14195D01*
X10904Y-14176D01*
X10866Y-14176D01*
X10828Y-14195D01*
X10809Y-14214D01*
X10790Y-14252D01*
X10771Y-14328D01*
X10752Y-14366D01*
X10733Y-14385D01*
X10695Y-14404D01*
X10657Y-14404D01*
X10619Y-14385D01*
X10600Y-14366D01*
X10580Y-14328D01*
X10580Y-14233D01*
X10600Y-14176D01*
X10714Y-14004D02*
X11114Y-14004D01*
X10733Y-14004D02*
X10714Y-13966D01*
X10714Y-13890D01*
X10733Y-13852D01*
X10752Y-13833D01*
X10790Y-13814D01*
X10904Y-13814D01*
X10942Y-13833D01*
X10961Y-13852D01*
X10980Y-13890D01*
X10980Y-13966D01*
X10961Y-14004D01*
X10961Y-13490D02*
X10980Y-13528D01*
X10980Y-13604D01*
X10961Y-13642D01*
X10923Y-13661D01*
X10771Y-13661D01*
X10733Y-13642D01*
X10714Y-13604D01*
X10714Y-13528D01*
X10733Y-13490D01*
X10771Y-13471D01*
X10809Y-13471D01*
X10847Y-13661D01*
X10961Y-13147D02*
X10980Y-13185D01*
X10980Y-13261D01*
X10961Y-13300D01*
X10923Y-13319D01*
X10771Y-13319D01*
X10733Y-13300D01*
X10714Y-13261D01*
X10714Y-13185D01*
X10733Y-13147D01*
X10771Y-13128D01*
X10809Y-13128D01*
X10847Y-13319D01*
X10980Y-12785D02*
X10580Y-12785D01*
X10961Y-12785D02*
X10980Y-12823D01*
X10980Y-12900D01*
X10961Y-12938D01*
X10942Y-12957D01*
X10904Y-12976D01*
X10790Y-12976D01*
X10752Y-12957D01*
X10733Y-12938D01*
X10714Y-12900D01*
X10714Y-12823D01*
X10733Y-12785D01*
X11582Y-16661D02*
X11601Y-16680D01*
X11620Y-16738D01*
X11620Y-16776D01*
X11601Y-16833D01*
X11563Y-16871D01*
X11525Y-16890D01*
X11449Y-16909D01*
X11392Y-16909D01*
X11316Y-16890D01*
X11278Y-16871D01*
X11240Y-16833D01*
X11220Y-16776D01*
X11220Y-16738D01*
X11240Y-16680D01*
X11259Y-16661D01*
X11620Y-16433D02*
X11601Y-16471D01*
X11582Y-16490D01*
X11544Y-16509D01*
X11430Y-16509D01*
X11392Y-16490D01*
X11373Y-16471D01*
X11354Y-16433D01*
X11354Y-16376D01*
X11373Y-16338D01*
X11392Y-16319D01*
X11430Y-16299D01*
X11544Y-16299D01*
X11582Y-16319D01*
X11601Y-16338D01*
X11620Y-16376D01*
X11620Y-16433D01*
X11354Y-16128D02*
X11620Y-16128D01*
X11392Y-16128D02*
X11373Y-16109D01*
X11354Y-16071D01*
X11354Y-16014D01*
X11373Y-15976D01*
X11411Y-15957D01*
X11620Y-15957D01*
X11354Y-15823D02*
X11354Y-15671D01*
X11220Y-15766D02*
X11563Y-15766D01*
X11601Y-15747D01*
X11620Y-15709D01*
X11620Y-15671D01*
X11620Y-15538D02*
X11354Y-15538D01*
X11430Y-15538D02*
X11392Y-15519D01*
X11373Y-15499D01*
X11354Y-15461D01*
X11354Y-15423D01*
X11620Y-15233D02*
X11601Y-15271D01*
X11582Y-15290D01*
X11544Y-15309D01*
X11430Y-15309D01*
X11392Y-15290D01*
X11373Y-15271D01*
X11354Y-15233D01*
X11354Y-15176D01*
X11373Y-15138D01*
X11392Y-15119D01*
X11430Y-15100D01*
X11544Y-15100D01*
X11582Y-15119D01*
X11601Y-15138D01*
X11620Y-15176D01*
X11620Y-15233D01*
X11620Y-14871D02*
X11601Y-14909D01*
X11563Y-14928D01*
X11220Y-14928D01*
X11220Y-14471D02*
X11620Y-14338D01*
X11220Y-14204D01*
X11620Y-13861D02*
X11620Y-14090D01*
X11620Y-13976D02*
X11220Y-13976D01*
X11278Y-14014D01*
X11316Y-14052D01*
X11335Y-14090D01*
X11582Y-13690D02*
X11601Y-13671D01*
X11620Y-13690D01*
X11601Y-13709D01*
X11582Y-13690D01*
X11620Y-13690D01*
X11220Y-13423D02*
X11220Y-13385D01*
X11240Y-13347D01*
X11259Y-13328D01*
X11297Y-13309D01*
X11373Y-13290D01*
X11468Y-13290D01*
X11544Y-13309D01*
X11582Y-13328D01*
X11601Y-13347D01*
X11620Y-13385D01*
X11620Y-13423D01*
X11601Y-13461D01*
X11582Y-13480D01*
X11544Y-13500D01*
X11468Y-13519D01*
X11373Y-13519D01*
X11297Y-13500D01*
X11259Y-13480D01*
X11240Y-13461D01*
X11220Y-13423D01*
X19490Y-20280D02*
X19566Y-20280D01*
X19604Y-20300D01*
X19642Y-20338D01*
X19661Y-20414D01*
X19661Y-20547D01*
X19642Y-20623D01*
X19604Y-20661D01*
X19566Y-20680D01*
X19490Y-20680D01*
X19452Y-20661D01*
X19414Y-20623D01*
X19395Y-20547D01*
X19395Y-20414D01*
X19414Y-20338D01*
X19452Y-20300D01*
X19490Y-20280D01*
X19833Y-20680D02*
X19833Y-20280D01*
X20061Y-20680D01*
X20061Y-20280D01*
X20538Y-20261D02*
X20195Y-20776D01*
X20747Y-20280D02*
X20823Y-20280D01*
X20861Y-20300D01*
X20900Y-20338D01*
X20919Y-20414D01*
X20919Y-20547D01*
X20900Y-20623D01*
X20861Y-20661D01*
X20823Y-20680D01*
X20747Y-20680D01*
X20709Y-20661D01*
X20671Y-20623D01*
X20652Y-20547D01*
X20652Y-20414D01*
X20671Y-20338D01*
X20709Y-20300D01*
X20747Y-20280D01*
X21223Y-20471D02*
X21090Y-20471D01*
X21090Y-20680D02*
X21090Y-20280D01*
X21280Y-20280D01*
X21566Y-20471D02*
X21433Y-20471D01*
X21433Y-20680D02*
X21433Y-20280D01*
X21623Y-20280D01*
X11947Y-20661D02*
X12004Y-20680D01*
X12100Y-20680D01*
X12138Y-20661D01*
X12157Y-20642D01*
X12176Y-20604D01*
X12176Y-20566D01*
X12157Y-20528D01*
X12138Y-20509D01*
X12100Y-20490D01*
X12023Y-20471D01*
X11985Y-20452D01*
X11966Y-20433D01*
X11947Y-20395D01*
X11947Y-20357D01*
X11966Y-20319D01*
X11985Y-20300D01*
X12023Y-20280D01*
X12119Y-20280D01*
X12176Y-20300D01*
X12347Y-20680D02*
X12347Y-20280D01*
X12500Y-20280D01*
X12538Y-20300D01*
X12557Y-20319D01*
X12576Y-20357D01*
X12576Y-20414D01*
X12557Y-20452D01*
X12538Y-20471D01*
X12500Y-20490D01*
X12347Y-20490D01*
X12747Y-20471D02*
X12880Y-20471D01*
X12938Y-20680D02*
X12747Y-20680D01*
X12747Y-20280D01*
X12938Y-20280D01*
X13109Y-20471D02*
X13242Y-20471D01*
X13300Y-20680D02*
X13109Y-20680D01*
X13109Y-20280D01*
X13300Y-20280D01*
X13471Y-20680D02*
X13471Y-20280D01*
X13566Y-20280D01*
X13623Y-20300D01*
X13661Y-20338D01*
X13680Y-20376D01*
X13700Y-20452D01*
X13700Y-20509D01*
X13680Y-20585D01*
X13661Y-20623D01*
X13623Y-20661D01*
X13566Y-20680D01*
X13471Y-20680D01*
X14157Y-20566D02*
X14347Y-20566D01*
X14119Y-20680D02*
X14252Y-20280D01*
X14385Y-20680D01*
X14519Y-20680D02*
X14519Y-20280D01*
X14614Y-20280D01*
X14671Y-20300D01*
X14709Y-20338D01*
X14728Y-20376D01*
X14747Y-20452D01*
X14747Y-20509D01*
X14728Y-20585D01*
X14709Y-20623D01*
X14671Y-20661D01*
X14614Y-20680D01*
X14519Y-20680D01*
X15033Y-20280D02*
X15033Y-20566D01*
X15014Y-20623D01*
X14976Y-20661D01*
X14919Y-20680D01*
X14880Y-20680D01*
X17980Y-13580D02*
X17980Y-13180D01*
X18114Y-13466D01*
X18247Y-13180D01*
X18247Y-13580D01*
X18514Y-13180D02*
X18590Y-13180D01*
X18628Y-13200D01*
X18666Y-13238D01*
X18685Y-13314D01*
X18685Y-13447D01*
X18666Y-13523D01*
X18628Y-13561D01*
X18590Y-13580D01*
X18514Y-13580D01*
X18476Y-13561D01*
X18438Y-13523D01*
X18419Y-13447D01*
X18419Y-13314D01*
X18438Y-13238D01*
X18476Y-13200D01*
X18514Y-13180D01*
X18800Y-13180D02*
X19028Y-13180D01*
X18914Y-13580D02*
X18914Y-13180D01*
X19238Y-13180D02*
X19314Y-13180D01*
X19352Y-13200D01*
X19390Y-13238D01*
X19409Y-13314D01*
X19409Y-13447D01*
X19390Y-13523D01*
X19352Y-13561D01*
X19314Y-13580D01*
X19238Y-13580D01*
X19200Y-13561D01*
X19161Y-13523D01*
X19142Y-13447D01*
X19142Y-13314D01*
X19161Y-13238D01*
X19200Y-13200D01*
X19238Y-13180D01*
X19809Y-13580D02*
X19676Y-13390D01*
X19580Y-13580D02*
X19580Y-13180D01*
X19733Y-13180D01*
X19771Y-13200D01*
X19790Y-13219D01*
X19809Y-13257D01*
X19809Y-13314D01*
X19790Y-13352D01*
X19771Y-13371D01*
X19733Y-13390D01*
X19580Y-13390D01*
X20400Y-13733D02*
X20380Y-13714D01*
X20342Y-13657D01*
X20323Y-13619D01*
X20304Y-13561D01*
X20285Y-13466D01*
X20285Y-13390D01*
X20304Y-13295D01*
X20323Y-13238D01*
X20342Y-13200D01*
X20380Y-13142D01*
X20400Y-13123D01*
X20552Y-13428D02*
X20857Y-13428D01*
X20704Y-13580D02*
X20704Y-13276D01*
X21066Y-13561D02*
X21066Y-13580D01*
X21047Y-13619D01*
X21028Y-13638D01*
X21542Y-13428D02*
X21847Y-13428D01*
X22000Y-13733D02*
X22019Y-13714D01*
X22057Y-13657D01*
X22076Y-13619D01*
X22095Y-13561D01*
X22114Y-13466D01*
X22114Y-13390D01*
X22095Y-13295D01*
X22076Y-13238D01*
X22057Y-13200D01*
X22019Y-13142D01*
X22000Y-13123D01*
X13842Y-13200D02*
X13804Y-13180D01*
X13747Y-13180D01*
X13690Y-13200D01*
X13652Y-13238D01*
X13633Y-13276D01*
X13614Y-13352D01*
X13614Y-13409D01*
X13633Y-13485D01*
X13652Y-13523D01*
X13690Y-13561D01*
X13747Y-13580D01*
X13785Y-13580D01*
X13842Y-13561D01*
X13861Y-13542D01*
X13861Y-13409D01*
X13785Y-13409D01*
X14033Y-13580D02*
X14033Y-13180D01*
X14261Y-13580D01*
X14261Y-13180D01*
X14452Y-13580D02*
X14452Y-13180D01*
X14547Y-13180D01*
X14604Y-13200D01*
X14642Y-13238D01*
X14661Y-13276D01*
X14680Y-13352D01*
X14680Y-13409D01*
X14661Y-13485D01*
X14642Y-13523D01*
X14604Y-13561D01*
X14547Y-13580D01*
X14452Y-13580D01*
X14871Y-13561D02*
X14871Y-13580D01*
X14852Y-13619D01*
X14833Y-13638D01*
X15309Y-13180D02*
X15557Y-13180D01*
X15423Y-13333D01*
X15480Y-13333D01*
X15519Y-13352D01*
X15538Y-13371D01*
X15557Y-13409D01*
X15557Y-13504D01*
X15538Y-13542D01*
X15519Y-13561D01*
X15480Y-13580D01*
X15366Y-13580D01*
X15328Y-13561D01*
X15309Y-13542D01*
X15671Y-13180D02*
X15804Y-13580D01*
X15938Y-13180D01*
X16033Y-13180D02*
X16280Y-13180D01*
X16147Y-13333D01*
X16204Y-13333D01*
X16242Y-13352D01*
X16261Y-13371D01*
X16280Y-13409D01*
X16280Y-13504D01*
X16261Y-13542D01*
X16242Y-13561D01*
X16204Y-13580D01*
X16090Y-13580D01*
X16052Y-13561D01*
X16033Y-13542D01*
G54D12*
X18497Y-16656D02*
X18772Y-16656D01*
X18103Y-16656D02*
X17828Y-16656D01*
X18497Y-16144D02*
X18772Y-16144D01*
X17828Y-16144D02*
X18103Y-16144D01*
X18772Y-16150D02*
X18772Y-16650D01*
X17828Y-16650D02*
X17828Y-16150D01*
G54D10*
X19800Y-14750D02*
X19800Y-14250D01*
G54D12*
X20203Y-14244D02*
X19928Y-14244D01*
X20597Y-14244D02*
X20872Y-14244D01*
X20203Y-14756D02*
X19928Y-14756D01*
X20872Y-14756D02*
X20597Y-14756D01*
X19928Y-14750D02*
X19928Y-14250D01*
X20872Y-14250D02*
X20872Y-14750D01*
G54D13*
X13400Y-10050D02*
X13400Y-12750D01*
X13400Y-12750D02*
X16600Y-12750D01*
X16600Y-12750D02*
X16600Y-10050D01*
X16600Y-10050D02*
X13400Y-10050D01*
X18400Y-10050D02*
X18400Y-12750D01*
X18400Y-12750D02*
X21600Y-12750D01*
X21600Y-12750D02*
X21600Y-10050D01*
X21600Y-10050D02*
X18400Y-10050D01*
G54D14*
X20950Y-17100D02*
X20950Y-15900D01*
X20950Y-15900D02*
X21250Y-15900D01*
X21250Y-15900D02*
X21250Y-17100D01*
X21250Y-17100D02*
X20950Y-17100D01*
X14697Y-18375D02*
X14975Y-18375D01*
X14975Y-18375D02*
X14975Y-17825D01*
X14975Y-17825D02*
X14697Y-17825D01*
X14025Y-18375D02*
X14303Y-18375D01*
X14025Y-18375D02*
X14025Y-17825D01*
X14025Y-17825D02*
X14303Y-17825D01*
X18103Y-17325D02*
X17825Y-17325D01*
X17825Y-17325D02*
X17825Y-17875D01*
X17825Y-17875D02*
X18103Y-17875D01*
X18775Y-17325D02*
X18497Y-17325D01*
X18775Y-17325D02*
X18775Y-17875D01*
X18775Y-17875D02*
X18497Y-17875D01*
X18497Y-15475D02*
X18775Y-15475D01*
X18775Y-15475D02*
X18775Y-14925D01*
X18775Y-14925D02*
X18497Y-14925D01*
X17825Y-15475D02*
X18103Y-15475D01*
X17825Y-15475D02*
X17825Y-14925D01*
X17825Y-14925D02*
X18103Y-14925D01*
X13125Y-15997D02*
X13125Y-16275D01*
X13125Y-16275D02*
X13675Y-16275D01*
X13675Y-16275D02*
X13675Y-15997D01*
X13125Y-15325D02*
X13125Y-15603D01*
X13125Y-15325D02*
X13675Y-15325D01*
X13675Y-15325D02*
X13675Y-15603D01*
X18103Y-18525D02*
X17825Y-18525D01*
X17825Y-18525D02*
X17825Y-19075D01*
X17825Y-19075D02*
X18103Y-19075D01*
X18775Y-18525D02*
X18497Y-18525D01*
X18775Y-18525D02*
X18775Y-19075D01*
X18775Y-19075D02*
X18497Y-19075D01*
G54D13*
X10700Y-20900D02*
X10700Y-24800D01*
X10700Y-24800D02*
X16300Y-24800D01*
X11000Y-20900D02*
X10700Y-20900D01*
X16300Y-20900D02*
X16300Y-24800D01*
X16000Y-20900D02*
X16300Y-20900D01*
X16000Y-20900D02*
X11000Y-20900D01*
X15500Y-24800D02*
X11500Y-24800D01*
X16800Y-20900D02*
X24400Y-20900D01*
X24400Y-20900D02*
X24400Y-24900D01*
X24400Y-24900D02*
X16800Y-24900D01*
X16800Y-24900D02*
X16800Y-20900D01*
G54D14*
X15200Y-16000D02*
X15400Y-15700D01*
X15200Y-16700D02*
X15200Y-15675D01*
X15200Y-15675D02*
X15800Y-15675D01*
X15800Y-15675D02*
X15800Y-16700D01*
X15800Y-16700D02*
X15200Y-16700D01*
G54D15*
X17671Y-16430D02*
X17680Y-16438D01*
X17690Y-16464D01*
X17690Y-16481D01*
X17680Y-16507D01*
X17661Y-16524D01*
X17642Y-16532D01*
X17604Y-16541D01*
X17576Y-16541D01*
X17538Y-16532D01*
X17519Y-16524D01*
X17500Y-16507D01*
X17490Y-16481D01*
X17490Y-16464D01*
X17500Y-16438D01*
X17509Y-16430D01*
X17690Y-16258D02*
X17690Y-16361D01*
X17690Y-16310D02*
X17490Y-16310D01*
X17519Y-16327D01*
X17538Y-16344D01*
X17547Y-16361D01*
X18890Y-16695D02*
X18890Y-16678D01*
X18900Y-16661D01*
X18909Y-16652D01*
X18928Y-16644D01*
X18966Y-16635D01*
X19014Y-16635D01*
X19052Y-16644D01*
X19071Y-16652D01*
X19080Y-16661D01*
X19090Y-16678D01*
X19090Y-16695D01*
X19080Y-16712D01*
X19071Y-16721D01*
X19052Y-16730D01*
X19014Y-16738D01*
X18966Y-16738D01*
X18928Y-16730D01*
X18909Y-16721D01*
X18900Y-16712D01*
X18890Y-16695D01*
X19071Y-16558D02*
X19080Y-16549D01*
X19090Y-16558D01*
X19080Y-16567D01*
X19071Y-16558D01*
X19090Y-16558D01*
X19090Y-16378D02*
X19090Y-16481D01*
X19090Y-16430D02*
X18890Y-16430D01*
X18919Y-16447D01*
X18938Y-16464D01*
X18947Y-16481D01*
X18957Y-16224D02*
X19090Y-16224D01*
X18957Y-16301D02*
X19061Y-16301D01*
X19080Y-16292D01*
X19090Y-16275D01*
X19090Y-16249D01*
X19080Y-16232D01*
X19071Y-16224D01*
X18985Y-16078D02*
X18985Y-16138D01*
X19090Y-16138D02*
X18890Y-16138D01*
X18890Y-16052D01*
X19590Y-14632D02*
X19390Y-14632D01*
X19390Y-14590D01*
X19400Y-14564D01*
X19419Y-14547D01*
X19438Y-14538D01*
X19476Y-14530D01*
X19504Y-14530D01*
X19542Y-14538D01*
X19561Y-14547D01*
X19580Y-14564D01*
X19590Y-14590D01*
X19590Y-14632D01*
X19590Y-14358D02*
X19590Y-14461D01*
X19590Y-14410D02*
X19390Y-14410D01*
X19419Y-14427D01*
X19438Y-14444D01*
X19447Y-14461D01*
G54D11*
X12704Y-10580D02*
X12704Y-10180D01*
X12857Y-10180D01*
X12895Y-10200D01*
X12914Y-10219D01*
X12933Y-10257D01*
X12933Y-10314D01*
X12914Y-10352D01*
X12895Y-10371D01*
X12857Y-10390D01*
X12704Y-10390D01*
X13314Y-10580D02*
X13085Y-10580D01*
X13200Y-10580D02*
X13200Y-10180D01*
X13161Y-10238D01*
X13123Y-10276D01*
X13085Y-10295D01*
X17604Y-10680D02*
X17604Y-10280D01*
X17757Y-10280D01*
X17795Y-10300D01*
X17814Y-10319D01*
X17833Y-10357D01*
X17833Y-10414D01*
X17814Y-10452D01*
X17795Y-10471D01*
X17757Y-10490D01*
X17604Y-10490D01*
X17985Y-10319D02*
X18004Y-10300D01*
X18042Y-10280D01*
X18138Y-10280D01*
X18176Y-10300D01*
X18195Y-10319D01*
X18214Y-10357D01*
X18214Y-10395D01*
X18195Y-10452D01*
X17966Y-10680D01*
X18214Y-10680D01*
G54D15*
X20309Y-16517D02*
X20300Y-16534D01*
X20280Y-16551D01*
X20252Y-16577D01*
X20242Y-16594D01*
X20242Y-16611D01*
X20290Y-16602D02*
X20280Y-16620D01*
X20261Y-16637D01*
X20223Y-16645D01*
X20157Y-16645D01*
X20119Y-16637D01*
X20100Y-16620D01*
X20090Y-16602D01*
X20090Y-16568D01*
X20100Y-16551D01*
X20119Y-16534D01*
X20157Y-16525D01*
X20223Y-16525D01*
X20261Y-16534D01*
X20280Y-16551D01*
X20290Y-16568D01*
X20290Y-16602D01*
X20290Y-16354D02*
X20290Y-16457D01*
X20290Y-16405D02*
X20090Y-16405D01*
X20119Y-16422D01*
X20138Y-16440D01*
X20147Y-16457D01*
X13889Y-18130D02*
X13795Y-18190D01*
X13889Y-18232D02*
X13692Y-18232D01*
X13692Y-18164D01*
X13701Y-18147D01*
X13710Y-18138D01*
X13729Y-18130D01*
X13757Y-18130D01*
X13776Y-18138D01*
X13785Y-18147D01*
X13795Y-18164D01*
X13795Y-18232D01*
X13889Y-17958D02*
X13889Y-18061D01*
X13889Y-18010D02*
X13692Y-18010D01*
X13720Y-18027D01*
X13739Y-18044D01*
X13748Y-18061D01*
X15109Y-18438D02*
X15100Y-18430D01*
X15090Y-18412D01*
X15090Y-18370D01*
X15100Y-18352D01*
X15109Y-18344D01*
X15128Y-18335D01*
X15147Y-18335D01*
X15176Y-18344D01*
X15290Y-18447D01*
X15290Y-18335D01*
X15090Y-18275D02*
X15090Y-18164D01*
X15166Y-18224D01*
X15166Y-18198D01*
X15176Y-18181D01*
X15185Y-18172D01*
X15204Y-18164D01*
X15252Y-18164D01*
X15271Y-18172D01*
X15280Y-18181D01*
X15290Y-18198D01*
X15290Y-18249D01*
X15280Y-18267D01*
X15271Y-18275D01*
X15271Y-18087D02*
X15280Y-18078D01*
X15290Y-18087D01*
X15280Y-18095D01*
X15271Y-18087D01*
X15290Y-18087D01*
X15109Y-18009D02*
X15100Y-18001D01*
X15090Y-17984D01*
X15090Y-17941D01*
X15100Y-17924D01*
X15109Y-17915D01*
X15128Y-17907D01*
X15147Y-17907D01*
X15176Y-17915D01*
X15290Y-18018D01*
X15290Y-17907D01*
X15290Y-17829D02*
X15090Y-17829D01*
X15214Y-17812D02*
X15290Y-17761D01*
X15157Y-17761D02*
X15233Y-17829D01*
X17689Y-17630D02*
X17595Y-17690D01*
X17689Y-17732D02*
X17492Y-17732D01*
X17492Y-17664D01*
X17501Y-17647D01*
X17510Y-17638D01*
X17529Y-17630D01*
X17557Y-17630D01*
X17576Y-17638D01*
X17585Y-17647D01*
X17595Y-17664D01*
X17595Y-17732D01*
X17510Y-17561D02*
X17501Y-17552D01*
X17492Y-17535D01*
X17492Y-17492D01*
X17501Y-17475D01*
X17510Y-17467D01*
X17529Y-17458D01*
X17548Y-17458D01*
X17576Y-17467D01*
X17689Y-17570D01*
X17689Y-17458D01*
X19090Y-17878D02*
X19090Y-17844D01*
X19080Y-17827D01*
X19071Y-17818D01*
X19042Y-17801D01*
X19004Y-17792D01*
X18928Y-17792D01*
X18909Y-17801D01*
X18900Y-17810D01*
X18890Y-17827D01*
X18890Y-17861D01*
X18900Y-17878D01*
X18909Y-17887D01*
X18928Y-17895D01*
X18976Y-17895D01*
X18995Y-17887D01*
X19004Y-17878D01*
X19014Y-17861D01*
X19014Y-17827D01*
X19004Y-17810D01*
X18995Y-17801D01*
X18976Y-17792D01*
X18890Y-17732D02*
X18890Y-17612D01*
X19090Y-17690D01*
X18890Y-17467D02*
X18890Y-17501D01*
X18900Y-17518D01*
X18909Y-17527D01*
X18938Y-17544D01*
X18976Y-17552D01*
X19052Y-17552D01*
X19071Y-17544D01*
X19080Y-17535D01*
X19090Y-17518D01*
X19090Y-17484D01*
X19080Y-17467D01*
X19071Y-17458D01*
X19052Y-17449D01*
X19004Y-17449D01*
X18985Y-17458D01*
X18976Y-17467D01*
X18966Y-17484D01*
X18966Y-17518D01*
X18976Y-17535D01*
X18985Y-17544D01*
X19004Y-17552D01*
X19090Y-17372D02*
X18890Y-17372D01*
X19014Y-17355D02*
X19090Y-17304D01*
X18957Y-17304D02*
X19033Y-17372D01*
X17689Y-15230D02*
X17595Y-15290D01*
X17689Y-15332D02*
X17492Y-15332D01*
X17492Y-15264D01*
X17501Y-15247D01*
X17510Y-15238D01*
X17529Y-15230D01*
X17557Y-15230D01*
X17576Y-15238D01*
X17585Y-15247D01*
X17595Y-15264D01*
X17595Y-15332D01*
X17492Y-15170D02*
X17492Y-15058D01*
X17567Y-15118D01*
X17567Y-15092D01*
X17576Y-15075D01*
X17585Y-15067D01*
X17604Y-15058D01*
X17651Y-15058D01*
X17670Y-15067D01*
X17679Y-15075D01*
X17689Y-15092D01*
X17689Y-15144D01*
X17679Y-15161D01*
X17670Y-15170D01*
X19059Y-15221D02*
X19059Y-15324D01*
X19059Y-15272D02*
X18859Y-15272D01*
X18888Y-15290D01*
X18907Y-15307D01*
X18916Y-15324D01*
X19059Y-15144D02*
X18859Y-15144D01*
X18983Y-15127D02*
X19059Y-15075D01*
X18926Y-15075D02*
X19002Y-15144D01*
X13370Y-15189D02*
X13310Y-15095D01*
X13267Y-15189D02*
X13267Y-14992D01*
X13335Y-14992D01*
X13352Y-15001D01*
X13361Y-15010D01*
X13370Y-15029D01*
X13370Y-15057D01*
X13361Y-15076D01*
X13352Y-15085D01*
X13335Y-15095D01*
X13267Y-15095D01*
X13524Y-15057D02*
X13524Y-15189D01*
X13481Y-14982D02*
X13438Y-15123D01*
X13550Y-15123D01*
X13207Y-16690D02*
X13104Y-16690D01*
X13155Y-16690D02*
X13155Y-16490D01*
X13138Y-16519D01*
X13121Y-16538D01*
X13104Y-16547D01*
X13275Y-16509D02*
X13284Y-16500D01*
X13301Y-16490D01*
X13344Y-16490D01*
X13361Y-16500D01*
X13370Y-16509D01*
X13378Y-16528D01*
X13378Y-16547D01*
X13370Y-16576D01*
X13267Y-16690D01*
X13378Y-16690D01*
X13532Y-16557D02*
X13532Y-16690D01*
X13490Y-16480D02*
X13447Y-16623D01*
X13558Y-16623D01*
X13627Y-16690D02*
X13627Y-16490D01*
X13644Y-16614D02*
X13695Y-16690D01*
X13695Y-16557D02*
X13627Y-16633D01*
X17689Y-18830D02*
X17595Y-18890D01*
X17689Y-18932D02*
X17492Y-18932D01*
X17492Y-18864D01*
X17501Y-18847D01*
X17510Y-18838D01*
X17529Y-18830D01*
X17557Y-18830D01*
X17576Y-18838D01*
X17585Y-18847D01*
X17595Y-18864D01*
X17595Y-18932D01*
X17492Y-18667D02*
X17492Y-18752D01*
X17585Y-18761D01*
X17576Y-18752D01*
X17567Y-18735D01*
X17567Y-18692D01*
X17576Y-18675D01*
X17585Y-18667D01*
X17604Y-18658D01*
X17651Y-18658D01*
X17670Y-18667D01*
X17679Y-18675D01*
X17689Y-18692D01*
X17689Y-18735D01*
X17679Y-18752D01*
X17670Y-18761D01*
X19090Y-18992D02*
X19090Y-19095D01*
X19090Y-19044D02*
X18890Y-19044D01*
X18919Y-19061D01*
X18938Y-19078D01*
X18947Y-19095D01*
X18976Y-18890D02*
X18966Y-18907D01*
X18957Y-18915D01*
X18938Y-18924D01*
X18928Y-18924D01*
X18909Y-18915D01*
X18900Y-18907D01*
X18890Y-18890D01*
X18890Y-18855D01*
X18900Y-18838D01*
X18909Y-18830D01*
X18928Y-18821D01*
X18938Y-18821D01*
X18957Y-18830D01*
X18966Y-18838D01*
X18976Y-18855D01*
X18976Y-18890D01*
X18985Y-18907D01*
X18995Y-18915D01*
X19014Y-18924D01*
X19052Y-18924D01*
X19071Y-18915D01*
X19080Y-18907D01*
X19090Y-18890D01*
X19090Y-18855D01*
X19080Y-18838D01*
X19071Y-18830D01*
X19052Y-18821D01*
X19014Y-18821D01*
X18995Y-18830D01*
X18985Y-18838D01*
X18976Y-18855D01*
X18909Y-18752D02*
X18900Y-18744D01*
X18890Y-18727D01*
X18890Y-18684D01*
X18900Y-18667D01*
X18909Y-18658D01*
X18928Y-18649D01*
X18947Y-18649D01*
X18976Y-18658D01*
X19090Y-18761D01*
X19090Y-18649D01*
X19090Y-18572D02*
X18890Y-18572D01*
X19014Y-18555D02*
X19090Y-18504D01*
X18957Y-18504D02*
X19033Y-18572D01*
G54D11*
X13261Y-24430D02*
X13128Y-24240D01*
X13033Y-24430D02*
X13033Y-24030D01*
X13185Y-24030D01*
X13223Y-24050D01*
X13242Y-24069D01*
X13261Y-24107D01*
X13261Y-24164D01*
X13242Y-24202D01*
X13223Y-24221D01*
X13185Y-24240D01*
X13033Y-24240D01*
X13376Y-24030D02*
X13509Y-24430D01*
X13642Y-24030D01*
X13985Y-24430D02*
X13757Y-24430D01*
X13871Y-24430D02*
X13871Y-24030D01*
X13833Y-24088D01*
X13795Y-24126D01*
X13757Y-24145D01*
X20216Y-24411D02*
X20273Y-24430D01*
X20369Y-24430D01*
X20407Y-24411D01*
X20426Y-24392D01*
X20445Y-24354D01*
X20445Y-24316D01*
X20426Y-24278D01*
X20407Y-24259D01*
X20369Y-24240D01*
X20292Y-24221D01*
X20254Y-24202D01*
X20235Y-24183D01*
X20216Y-24145D01*
X20216Y-24107D01*
X20235Y-24069D01*
X20254Y-24050D01*
X20292Y-24030D01*
X20388Y-24030D01*
X20445Y-24050D01*
X20578Y-24030D02*
X20673Y-24430D01*
X20750Y-24145D01*
X20826Y-24430D01*
X20921Y-24030D01*
X21283Y-24430D02*
X21054Y-24430D01*
X21169Y-24430D02*
X21169Y-24030D01*
X21130Y-24088D01*
X21092Y-24126D01*
X21054Y-24145D01*
G54D15*
X15362Y-15290D02*
X15362Y-15452D01*
X15371Y-15471D01*
X15380Y-15480D01*
X15397Y-15490D01*
X15431Y-15490D01*
X15448Y-15480D01*
X15457Y-15471D01*
X15465Y-15452D01*
X15465Y-15290D01*
X15645Y-15490D02*
X15542Y-15490D01*
X15594Y-15490D02*
X15594Y-15290D01*
X15577Y-15319D01*
X15560Y-15338D01*
X15542Y-15347D01*
M02*
