G04 (created by PCBNEW (2013-mar-13)-testing) date Sun 09 Feb 2014 10:32:50 PM PST*
%MOIN*%
G04 Gerber Fmt 3.4, Leading zero omitted, Abs format*
%FSLAX34Y34*%
G01*
G70*
G90*
G04 APERTURE LIST*
%ADD10C,0.005906*%
%ADD11R,0.025000X0.045000*%
%ADD12R,0.063000X0.063000*%
%ADD13C,0.063000*%
%ADD14R,0.036000X0.036000*%
%ADD15R,0.045000X0.025000*%
%ADD16C,0.076000*%
%ADD17C,0.125000*%
%ADD18C,0.100000*%
%ADD19R,0.048031X0.024409*%
%ADD20C,0.130000*%
G04 APERTURE END LIST*
G54D10*
G54D11*
X17900Y-16400D03*
X18500Y-16400D03*
X20700Y-14500D03*
X20100Y-14500D03*
G54D12*
X14311Y-11400D03*
G54D13*
X15689Y-11400D03*
G54D12*
X19311Y-11400D03*
G54D13*
X20689Y-11400D03*
G54D14*
X20700Y-16850D03*
X20700Y-16150D03*
X21500Y-16500D03*
G54D11*
X13800Y-18000D03*
X13200Y-18000D03*
X17900Y-18000D03*
X18500Y-18000D03*
X18500Y-15200D03*
X17900Y-15200D03*
G54D15*
X13200Y-16200D03*
X13200Y-15600D03*
G54D11*
X18500Y-19500D03*
X17900Y-19500D03*
G54D16*
X12516Y-22700D03*
X13500Y-22700D03*
X14484Y-22700D03*
G54D17*
X11570Y-21834D03*
X15430Y-21834D03*
G54D18*
X18730Y-21900D03*
X20600Y-21900D03*
X22470Y-21900D03*
G54D19*
X16015Y-15525D03*
X16015Y-15900D03*
X16015Y-16274D03*
X14984Y-16274D03*
X14984Y-15900D03*
X14984Y-15525D03*
G54D20*
X11000Y-19500D03*
X24000Y-11000D03*
X11000Y-11000D03*
X24000Y-19500D03*
G54D11*
X15400Y-19500D03*
X16000Y-19500D03*
X16000Y-18000D03*
X15400Y-18000D03*
M02*
