G04 (created by PCBNEW (2013-mar-13)-testing) date Sun 09 Feb 2014 10:32:50 PM PST*
%MOIN*%
G04 Gerber Fmt 3.4, Leading zero omitted, Abs format*
%FSLAX34Y34*%
G01*
G70*
G90*
G04 APERTURE LIST*
%ADD10C,0.005906*%
%ADD11C,0.008000*%
%ADD12C,0.004700*%
%ADD13C,0.015000*%
%ADD14C,0.005000*%
%ADD15C,0.004500*%
G04 APERTURE END LIST*
G54D10*
G54D11*
X24080Y-17371D02*
X23680Y-17371D01*
X23680Y-17104D02*
X23680Y-17028D01*
X23700Y-16990D01*
X23738Y-16952D01*
X23814Y-16933D01*
X23947Y-16933D01*
X24023Y-16952D01*
X24061Y-16990D01*
X24080Y-17028D01*
X24080Y-17104D01*
X24061Y-17142D01*
X24023Y-17180D01*
X23947Y-17199D01*
X23814Y-17199D01*
X23738Y-17180D01*
X23700Y-17142D01*
X23680Y-17104D01*
X24080Y-16228D02*
X23890Y-16361D01*
X24080Y-16457D02*
X23680Y-16457D01*
X23680Y-16304D01*
X23700Y-16266D01*
X23719Y-16247D01*
X23757Y-16228D01*
X23814Y-16228D01*
X23852Y-16247D01*
X23871Y-16266D01*
X23890Y-16304D01*
X23890Y-16457D01*
X24080Y-15999D02*
X24061Y-16038D01*
X24042Y-16057D01*
X24004Y-16076D01*
X23890Y-16076D01*
X23852Y-16057D01*
X23833Y-16038D01*
X23814Y-15999D01*
X23814Y-15942D01*
X23833Y-15904D01*
X23852Y-15885D01*
X23890Y-15866D01*
X24004Y-15866D01*
X24042Y-15885D01*
X24061Y-15904D01*
X24080Y-15942D01*
X24080Y-15999D01*
X24080Y-15523D02*
X23680Y-15523D01*
X24061Y-15523D02*
X24080Y-15561D01*
X24080Y-15638D01*
X24061Y-15676D01*
X24042Y-15695D01*
X24004Y-15714D01*
X23890Y-15714D01*
X23852Y-15695D01*
X23833Y-15676D01*
X23814Y-15638D01*
X23814Y-15561D01*
X23833Y-15523D01*
X24061Y-15180D02*
X24080Y-15219D01*
X24080Y-15295D01*
X24061Y-15333D01*
X24023Y-15352D01*
X23871Y-15352D01*
X23833Y-15333D01*
X23814Y-15295D01*
X23814Y-15219D01*
X23833Y-15180D01*
X23871Y-15161D01*
X23909Y-15161D01*
X23947Y-15352D01*
X24080Y-14933D02*
X24061Y-14971D01*
X24042Y-14990D01*
X24004Y-15009D01*
X23890Y-15009D01*
X23852Y-14990D01*
X23833Y-14971D01*
X23814Y-14933D01*
X23814Y-14876D01*
X23833Y-14838D01*
X23852Y-14819D01*
X23890Y-14800D01*
X24004Y-14800D01*
X24042Y-14819D01*
X24061Y-14838D01*
X24080Y-14876D01*
X24080Y-14933D01*
X24080Y-14323D02*
X23680Y-14323D01*
X23814Y-14133D02*
X24080Y-14133D01*
X23852Y-14133D02*
X23833Y-14114D01*
X23814Y-14076D01*
X23814Y-14019D01*
X23833Y-13980D01*
X23871Y-13961D01*
X24080Y-13961D01*
X24061Y-13600D02*
X24080Y-13638D01*
X24080Y-13714D01*
X24061Y-13752D01*
X24042Y-13771D01*
X24004Y-13790D01*
X23890Y-13790D01*
X23852Y-13771D01*
X23833Y-13752D01*
X23814Y-13714D01*
X23814Y-13638D01*
X23833Y-13600D01*
X24042Y-13428D02*
X24061Y-13409D01*
X24080Y-13428D01*
X24061Y-13447D01*
X24042Y-13428D01*
X24080Y-13428D01*
X10771Y-17585D02*
X10790Y-17528D01*
X10809Y-17509D01*
X10847Y-17490D01*
X10904Y-17490D01*
X10942Y-17509D01*
X10961Y-17528D01*
X10980Y-17566D01*
X10980Y-17719D01*
X10580Y-17719D01*
X10580Y-17585D01*
X10600Y-17547D01*
X10619Y-17528D01*
X10657Y-17509D01*
X10695Y-17509D01*
X10733Y-17528D01*
X10752Y-17547D01*
X10771Y-17585D01*
X10771Y-17719D01*
X10980Y-17147D02*
X10771Y-17147D01*
X10733Y-17166D01*
X10714Y-17204D01*
X10714Y-17280D01*
X10733Y-17319D01*
X10961Y-17147D02*
X10980Y-17185D01*
X10980Y-17280D01*
X10961Y-17319D01*
X10923Y-17338D01*
X10885Y-17338D01*
X10847Y-17319D01*
X10828Y-17280D01*
X10828Y-17185D01*
X10809Y-17147D01*
X10961Y-16976D02*
X10980Y-16938D01*
X10980Y-16861D01*
X10961Y-16823D01*
X10923Y-16804D01*
X10904Y-16804D01*
X10866Y-16823D01*
X10847Y-16861D01*
X10847Y-16919D01*
X10828Y-16957D01*
X10790Y-16976D01*
X10771Y-16976D01*
X10733Y-16957D01*
X10714Y-16919D01*
X10714Y-16861D01*
X10733Y-16823D01*
X10980Y-16633D02*
X10714Y-16633D01*
X10580Y-16633D02*
X10600Y-16652D01*
X10619Y-16633D01*
X10600Y-16614D01*
X10580Y-16633D01*
X10619Y-16633D01*
X10961Y-16271D02*
X10980Y-16309D01*
X10980Y-16385D01*
X10961Y-16423D01*
X10942Y-16442D01*
X10904Y-16461D01*
X10790Y-16461D01*
X10752Y-16442D01*
X10733Y-16423D01*
X10714Y-16385D01*
X10714Y-16309D01*
X10733Y-16271D01*
X10580Y-15833D02*
X10580Y-15585D01*
X10733Y-15719D01*
X10733Y-15661D01*
X10752Y-15623D01*
X10771Y-15604D01*
X10809Y-15585D01*
X10904Y-15585D01*
X10942Y-15604D01*
X10961Y-15623D01*
X10980Y-15661D01*
X10980Y-15776D01*
X10961Y-15814D01*
X10942Y-15833D01*
X10580Y-15471D02*
X10980Y-15338D01*
X10580Y-15204D01*
X10580Y-15109D02*
X10580Y-14861D01*
X10733Y-14995D01*
X10733Y-14938D01*
X10752Y-14900D01*
X10771Y-14880D01*
X10809Y-14861D01*
X10904Y-14861D01*
X10942Y-14880D01*
X10961Y-14900D01*
X10980Y-14938D01*
X10980Y-15052D01*
X10961Y-15090D01*
X10942Y-15109D01*
X10961Y-14404D02*
X10980Y-14347D01*
X10980Y-14252D01*
X10961Y-14214D01*
X10942Y-14195D01*
X10904Y-14176D01*
X10866Y-14176D01*
X10828Y-14195D01*
X10809Y-14214D01*
X10790Y-14252D01*
X10771Y-14328D01*
X10752Y-14366D01*
X10733Y-14385D01*
X10695Y-14404D01*
X10657Y-14404D01*
X10619Y-14385D01*
X10600Y-14366D01*
X10580Y-14328D01*
X10580Y-14233D01*
X10600Y-14176D01*
X10714Y-14004D02*
X11114Y-14004D01*
X10733Y-14004D02*
X10714Y-13966D01*
X10714Y-13890D01*
X10733Y-13852D01*
X10752Y-13833D01*
X10790Y-13814D01*
X10904Y-13814D01*
X10942Y-13833D01*
X10961Y-13852D01*
X10980Y-13890D01*
X10980Y-13966D01*
X10961Y-14004D01*
X10961Y-13490D02*
X10980Y-13528D01*
X10980Y-13604D01*
X10961Y-13642D01*
X10923Y-13661D01*
X10771Y-13661D01*
X10733Y-13642D01*
X10714Y-13604D01*
X10714Y-13528D01*
X10733Y-13490D01*
X10771Y-13471D01*
X10809Y-13471D01*
X10847Y-13661D01*
X10961Y-13147D02*
X10980Y-13185D01*
X10980Y-13261D01*
X10961Y-13300D01*
X10923Y-13319D01*
X10771Y-13319D01*
X10733Y-13300D01*
X10714Y-13261D01*
X10714Y-13185D01*
X10733Y-13147D01*
X10771Y-13128D01*
X10809Y-13128D01*
X10847Y-13319D01*
X10980Y-12785D02*
X10580Y-12785D01*
X10961Y-12785D02*
X10980Y-12823D01*
X10980Y-12900D01*
X10961Y-12938D01*
X10942Y-12957D01*
X10904Y-12976D01*
X10790Y-12976D01*
X10752Y-12957D01*
X10733Y-12938D01*
X10714Y-12900D01*
X10714Y-12823D01*
X10733Y-12785D01*
X11582Y-16661D02*
X11601Y-16680D01*
X11620Y-16738D01*
X11620Y-16776D01*
X11601Y-16833D01*
X11563Y-16871D01*
X11525Y-16890D01*
X11449Y-16909D01*
X11392Y-16909D01*
X11316Y-16890D01*
X11278Y-16871D01*
X11240Y-16833D01*
X11220Y-16776D01*
X11220Y-16738D01*
X11240Y-16680D01*
X11259Y-16661D01*
X11620Y-16433D02*
X11601Y-16471D01*
X11582Y-16490D01*
X11544Y-16509D01*
X11430Y-16509D01*
X11392Y-16490D01*
X11373Y-16471D01*
X11354Y-16433D01*
X11354Y-16376D01*
X11373Y-16338D01*
X11392Y-16319D01*
X11430Y-16299D01*
X11544Y-16299D01*
X11582Y-16319D01*
X11601Y-16338D01*
X11620Y-16376D01*
X11620Y-16433D01*
X11354Y-16128D02*
X11620Y-16128D01*
X11392Y-16128D02*
X11373Y-16109D01*
X11354Y-16071D01*
X11354Y-16014D01*
X11373Y-15976D01*
X11411Y-15957D01*
X11620Y-15957D01*
X11354Y-15823D02*
X11354Y-15671D01*
X11220Y-15766D02*
X11563Y-15766D01*
X11601Y-15747D01*
X11620Y-15709D01*
X11620Y-15671D01*
X11620Y-15538D02*
X11354Y-15538D01*
X11430Y-15538D02*
X11392Y-15519D01*
X11373Y-15499D01*
X11354Y-15461D01*
X11354Y-15423D01*
X11620Y-15233D02*
X11601Y-15271D01*
X11582Y-15290D01*
X11544Y-15309D01*
X11430Y-15309D01*
X11392Y-15290D01*
X11373Y-15271D01*
X11354Y-15233D01*
X11354Y-15176D01*
X11373Y-15138D01*
X11392Y-15119D01*
X11430Y-15100D01*
X11544Y-15100D01*
X11582Y-15119D01*
X11601Y-15138D01*
X11620Y-15176D01*
X11620Y-15233D01*
X11620Y-14871D02*
X11601Y-14909D01*
X11563Y-14928D01*
X11220Y-14928D01*
X11220Y-14471D02*
X11620Y-14338D01*
X11220Y-14204D01*
X11620Y-13861D02*
X11620Y-14090D01*
X11620Y-13976D02*
X11220Y-13976D01*
X11278Y-14014D01*
X11316Y-14052D01*
X11335Y-14090D01*
X11582Y-13690D02*
X11601Y-13671D01*
X11620Y-13690D01*
X11601Y-13709D01*
X11582Y-13690D01*
X11620Y-13690D01*
X11620Y-13290D02*
X11620Y-13519D01*
X11620Y-13404D02*
X11220Y-13404D01*
X11278Y-13442D01*
X11316Y-13480D01*
X11335Y-13519D01*
X19490Y-20180D02*
X19566Y-20180D01*
X19604Y-20200D01*
X19642Y-20238D01*
X19661Y-20314D01*
X19661Y-20447D01*
X19642Y-20523D01*
X19604Y-20561D01*
X19566Y-20580D01*
X19490Y-20580D01*
X19452Y-20561D01*
X19414Y-20523D01*
X19395Y-20447D01*
X19395Y-20314D01*
X19414Y-20238D01*
X19452Y-20200D01*
X19490Y-20180D01*
X19833Y-20580D02*
X19833Y-20180D01*
X20061Y-20580D01*
X20061Y-20180D01*
X20538Y-20161D02*
X20195Y-20676D01*
X20747Y-20180D02*
X20823Y-20180D01*
X20861Y-20200D01*
X20900Y-20238D01*
X20919Y-20314D01*
X20919Y-20447D01*
X20900Y-20523D01*
X20861Y-20561D01*
X20823Y-20580D01*
X20747Y-20580D01*
X20709Y-20561D01*
X20671Y-20523D01*
X20652Y-20447D01*
X20652Y-20314D01*
X20671Y-20238D01*
X20709Y-20200D01*
X20747Y-20180D01*
X21223Y-20371D02*
X21090Y-20371D01*
X21090Y-20580D02*
X21090Y-20180D01*
X21280Y-20180D01*
X21566Y-20371D02*
X21433Y-20371D01*
X21433Y-20580D02*
X21433Y-20180D01*
X21623Y-20180D01*
X11947Y-20561D02*
X12004Y-20580D01*
X12100Y-20580D01*
X12138Y-20561D01*
X12157Y-20542D01*
X12176Y-20504D01*
X12176Y-20466D01*
X12157Y-20428D01*
X12138Y-20409D01*
X12100Y-20390D01*
X12023Y-20371D01*
X11985Y-20352D01*
X11966Y-20333D01*
X11947Y-20295D01*
X11947Y-20257D01*
X11966Y-20219D01*
X11985Y-20200D01*
X12023Y-20180D01*
X12119Y-20180D01*
X12176Y-20200D01*
X12347Y-20580D02*
X12347Y-20180D01*
X12500Y-20180D01*
X12538Y-20200D01*
X12557Y-20219D01*
X12576Y-20257D01*
X12576Y-20314D01*
X12557Y-20352D01*
X12538Y-20371D01*
X12500Y-20390D01*
X12347Y-20390D01*
X12747Y-20371D02*
X12880Y-20371D01*
X12938Y-20580D02*
X12747Y-20580D01*
X12747Y-20180D01*
X12938Y-20180D01*
X13109Y-20371D02*
X13242Y-20371D01*
X13300Y-20580D02*
X13109Y-20580D01*
X13109Y-20180D01*
X13300Y-20180D01*
X13471Y-20580D02*
X13471Y-20180D01*
X13566Y-20180D01*
X13623Y-20200D01*
X13661Y-20238D01*
X13680Y-20276D01*
X13700Y-20352D01*
X13700Y-20409D01*
X13680Y-20485D01*
X13661Y-20523D01*
X13623Y-20561D01*
X13566Y-20580D01*
X13471Y-20580D01*
X14157Y-20466D02*
X14347Y-20466D01*
X14119Y-20580D02*
X14252Y-20180D01*
X14385Y-20580D01*
X14519Y-20580D02*
X14519Y-20180D01*
X14614Y-20180D01*
X14671Y-20200D01*
X14709Y-20238D01*
X14728Y-20276D01*
X14747Y-20352D01*
X14747Y-20409D01*
X14728Y-20485D01*
X14709Y-20523D01*
X14671Y-20561D01*
X14614Y-20580D01*
X14519Y-20580D01*
X15033Y-20180D02*
X15033Y-20466D01*
X15014Y-20523D01*
X14976Y-20561D01*
X14919Y-20580D01*
X14880Y-20580D01*
X17980Y-13580D02*
X17980Y-13180D01*
X18114Y-13466D01*
X18247Y-13180D01*
X18247Y-13580D01*
X18514Y-13180D02*
X18590Y-13180D01*
X18628Y-13200D01*
X18666Y-13238D01*
X18685Y-13314D01*
X18685Y-13447D01*
X18666Y-13523D01*
X18628Y-13561D01*
X18590Y-13580D01*
X18514Y-13580D01*
X18476Y-13561D01*
X18438Y-13523D01*
X18419Y-13447D01*
X18419Y-13314D01*
X18438Y-13238D01*
X18476Y-13200D01*
X18514Y-13180D01*
X18800Y-13180D02*
X19028Y-13180D01*
X18914Y-13580D02*
X18914Y-13180D01*
X19238Y-13180D02*
X19314Y-13180D01*
X19352Y-13200D01*
X19390Y-13238D01*
X19409Y-13314D01*
X19409Y-13447D01*
X19390Y-13523D01*
X19352Y-13561D01*
X19314Y-13580D01*
X19238Y-13580D01*
X19200Y-13561D01*
X19161Y-13523D01*
X19142Y-13447D01*
X19142Y-13314D01*
X19161Y-13238D01*
X19200Y-13200D01*
X19238Y-13180D01*
X19809Y-13580D02*
X19676Y-13390D01*
X19580Y-13580D02*
X19580Y-13180D01*
X19733Y-13180D01*
X19771Y-13200D01*
X19790Y-13219D01*
X19809Y-13257D01*
X19809Y-13314D01*
X19790Y-13352D01*
X19771Y-13371D01*
X19733Y-13390D01*
X19580Y-13390D01*
X20400Y-13733D02*
X20380Y-13714D01*
X20342Y-13657D01*
X20323Y-13619D01*
X20304Y-13561D01*
X20285Y-13466D01*
X20285Y-13390D01*
X20304Y-13295D01*
X20323Y-13238D01*
X20342Y-13200D01*
X20380Y-13142D01*
X20400Y-13123D01*
X20552Y-13428D02*
X20857Y-13428D01*
X20704Y-13580D02*
X20704Y-13276D01*
X21066Y-13561D02*
X21066Y-13580D01*
X21047Y-13619D01*
X21028Y-13638D01*
X21542Y-13428D02*
X21847Y-13428D01*
X22000Y-13733D02*
X22019Y-13714D01*
X22057Y-13657D01*
X22076Y-13619D01*
X22095Y-13561D01*
X22114Y-13466D01*
X22114Y-13390D01*
X22095Y-13295D01*
X22076Y-13238D01*
X22057Y-13200D01*
X22019Y-13142D01*
X22000Y-13123D01*
X13842Y-13200D02*
X13804Y-13180D01*
X13747Y-13180D01*
X13690Y-13200D01*
X13652Y-13238D01*
X13633Y-13276D01*
X13614Y-13352D01*
X13614Y-13409D01*
X13633Y-13485D01*
X13652Y-13523D01*
X13690Y-13561D01*
X13747Y-13580D01*
X13785Y-13580D01*
X13842Y-13561D01*
X13861Y-13542D01*
X13861Y-13409D01*
X13785Y-13409D01*
X14033Y-13580D02*
X14033Y-13180D01*
X14261Y-13580D01*
X14261Y-13180D01*
X14452Y-13580D02*
X14452Y-13180D01*
X14547Y-13180D01*
X14604Y-13200D01*
X14642Y-13238D01*
X14661Y-13276D01*
X14680Y-13352D01*
X14680Y-13409D01*
X14661Y-13485D01*
X14642Y-13523D01*
X14604Y-13561D01*
X14547Y-13580D01*
X14452Y-13580D01*
X14871Y-13561D02*
X14871Y-13580D01*
X14852Y-13619D01*
X14833Y-13638D01*
X15309Y-13180D02*
X15557Y-13180D01*
X15423Y-13333D01*
X15480Y-13333D01*
X15519Y-13352D01*
X15538Y-13371D01*
X15557Y-13409D01*
X15557Y-13504D01*
X15538Y-13542D01*
X15519Y-13561D01*
X15480Y-13580D01*
X15366Y-13580D01*
X15328Y-13561D01*
X15309Y-13542D01*
X15671Y-13180D02*
X15804Y-13580D01*
X15938Y-13180D01*
X16033Y-13180D02*
X16280Y-13180D01*
X16147Y-13333D01*
X16204Y-13333D01*
X16242Y-13352D01*
X16261Y-13371D01*
X16280Y-13409D01*
X16280Y-13504D01*
X16261Y-13542D01*
X16242Y-13561D01*
X16204Y-13580D01*
X16090Y-13580D01*
X16052Y-13561D01*
X16033Y-13542D01*
G54D12*
X18397Y-16656D02*
X18672Y-16656D01*
X18003Y-16656D02*
X17728Y-16656D01*
X18397Y-16144D02*
X18672Y-16144D01*
X17728Y-16144D02*
X18003Y-16144D01*
X18672Y-16150D02*
X18672Y-16650D01*
X17728Y-16650D02*
X17728Y-16150D01*
G54D10*
X19800Y-14750D02*
X19800Y-14250D01*
G54D12*
X20203Y-14244D02*
X19928Y-14244D01*
X20597Y-14244D02*
X20872Y-14244D01*
X20203Y-14756D02*
X19928Y-14756D01*
X20872Y-14756D02*
X20597Y-14756D01*
X19928Y-14750D02*
X19928Y-14250D01*
X20872Y-14250D02*
X20872Y-14750D01*
G54D13*
X13400Y-10050D02*
X13400Y-12750D01*
X13400Y-12750D02*
X16600Y-12750D01*
X16600Y-12750D02*
X16600Y-10050D01*
X16600Y-10050D02*
X13400Y-10050D01*
X18400Y-10050D02*
X18400Y-12750D01*
X18400Y-12750D02*
X21600Y-12750D01*
X21600Y-12750D02*
X21600Y-10050D01*
X21600Y-10050D02*
X18400Y-10050D01*
G54D14*
X20950Y-17100D02*
X20950Y-15900D01*
X20950Y-15900D02*
X21250Y-15900D01*
X21250Y-15900D02*
X21250Y-17100D01*
X21250Y-17100D02*
X20950Y-17100D01*
X13697Y-18275D02*
X13975Y-18275D01*
X13975Y-18275D02*
X13975Y-17725D01*
X13975Y-17725D02*
X13697Y-17725D01*
X13025Y-18275D02*
X13303Y-18275D01*
X13025Y-18275D02*
X13025Y-17725D01*
X13025Y-17725D02*
X13303Y-17725D01*
X18003Y-17725D02*
X17725Y-17725D01*
X17725Y-17725D02*
X17725Y-18275D01*
X17725Y-18275D02*
X18003Y-18275D01*
X18675Y-17725D02*
X18397Y-17725D01*
X18675Y-17725D02*
X18675Y-18275D01*
X18675Y-18275D02*
X18397Y-18275D01*
X18397Y-15475D02*
X18675Y-15475D01*
X18675Y-15475D02*
X18675Y-14925D01*
X18675Y-14925D02*
X18397Y-14925D01*
X17725Y-15475D02*
X18003Y-15475D01*
X17725Y-15475D02*
X17725Y-14925D01*
X17725Y-14925D02*
X18003Y-14925D01*
X12925Y-16097D02*
X12925Y-16375D01*
X12925Y-16375D02*
X13475Y-16375D01*
X13475Y-16375D02*
X13475Y-16097D01*
X12925Y-15425D02*
X12925Y-15703D01*
X12925Y-15425D02*
X13475Y-15425D01*
X13475Y-15425D02*
X13475Y-15703D01*
X18397Y-19775D02*
X18675Y-19775D01*
X18675Y-19775D02*
X18675Y-19225D01*
X18675Y-19225D02*
X18397Y-19225D01*
X17725Y-19775D02*
X18003Y-19775D01*
X17725Y-19775D02*
X17725Y-19225D01*
X17725Y-19225D02*
X18003Y-19225D01*
G54D13*
X10700Y-20900D02*
X10700Y-24800D01*
X10700Y-24800D02*
X16300Y-24800D01*
X11000Y-20900D02*
X10700Y-20900D01*
X16300Y-20900D02*
X16300Y-24800D01*
X16000Y-20900D02*
X16300Y-20900D01*
X16000Y-20900D02*
X11000Y-20900D01*
X15500Y-24800D02*
X11500Y-24800D01*
X16800Y-20900D02*
X24400Y-20900D01*
X24400Y-20900D02*
X24400Y-24900D01*
X24400Y-24900D02*
X16800Y-24900D01*
X16800Y-24900D02*
X16800Y-20900D01*
G54D14*
X15200Y-15700D02*
X15400Y-15400D01*
X15200Y-16400D02*
X15200Y-15375D01*
X15200Y-15375D02*
X15800Y-15375D01*
X15800Y-15375D02*
X15800Y-16400D01*
X15800Y-16400D02*
X15200Y-16400D01*
G54D10*
X16300Y-19250D02*
X16300Y-19750D01*
G54D12*
X15897Y-19756D02*
X16172Y-19756D01*
X15503Y-19756D02*
X15228Y-19756D01*
X15897Y-19244D02*
X16172Y-19244D01*
X15228Y-19244D02*
X15503Y-19244D01*
X16172Y-19250D02*
X16172Y-19750D01*
X15228Y-19750D02*
X15228Y-19250D01*
G54D14*
X15897Y-18275D02*
X16175Y-18275D01*
X16175Y-18275D02*
X16175Y-17725D01*
X16175Y-17725D02*
X15897Y-17725D01*
X15225Y-18275D02*
X15503Y-18275D01*
X15225Y-18275D02*
X15225Y-17725D01*
X15225Y-17725D02*
X15503Y-17725D01*
G54D15*
X17571Y-16430D02*
X17580Y-16438D01*
X17590Y-16464D01*
X17590Y-16481D01*
X17580Y-16507D01*
X17561Y-16524D01*
X17542Y-16532D01*
X17504Y-16541D01*
X17476Y-16541D01*
X17438Y-16532D01*
X17419Y-16524D01*
X17400Y-16507D01*
X17390Y-16481D01*
X17390Y-16464D01*
X17400Y-16438D01*
X17409Y-16430D01*
X17590Y-16258D02*
X17590Y-16361D01*
X17590Y-16310D02*
X17390Y-16310D01*
X17419Y-16327D01*
X17438Y-16344D01*
X17447Y-16361D01*
X18790Y-16695D02*
X18790Y-16678D01*
X18800Y-16661D01*
X18809Y-16652D01*
X18828Y-16644D01*
X18866Y-16635D01*
X18914Y-16635D01*
X18952Y-16644D01*
X18971Y-16652D01*
X18980Y-16661D01*
X18990Y-16678D01*
X18990Y-16695D01*
X18980Y-16712D01*
X18971Y-16721D01*
X18952Y-16730D01*
X18914Y-16738D01*
X18866Y-16738D01*
X18828Y-16730D01*
X18809Y-16721D01*
X18800Y-16712D01*
X18790Y-16695D01*
X18971Y-16558D02*
X18980Y-16549D01*
X18990Y-16558D01*
X18980Y-16567D01*
X18971Y-16558D01*
X18990Y-16558D01*
X18990Y-16378D02*
X18990Y-16481D01*
X18990Y-16430D02*
X18790Y-16430D01*
X18819Y-16447D01*
X18838Y-16464D01*
X18847Y-16481D01*
X18857Y-16224D02*
X18990Y-16224D01*
X18857Y-16301D02*
X18961Y-16301D01*
X18980Y-16292D01*
X18990Y-16275D01*
X18990Y-16249D01*
X18980Y-16232D01*
X18971Y-16224D01*
X18885Y-16078D02*
X18885Y-16138D01*
X18990Y-16138D02*
X18790Y-16138D01*
X18790Y-16052D01*
X19590Y-14632D02*
X19390Y-14632D01*
X19390Y-14590D01*
X19400Y-14564D01*
X19419Y-14547D01*
X19438Y-14538D01*
X19476Y-14530D01*
X19504Y-14530D01*
X19542Y-14538D01*
X19561Y-14547D01*
X19580Y-14564D01*
X19590Y-14590D01*
X19590Y-14632D01*
X19590Y-14358D02*
X19590Y-14461D01*
X19590Y-14410D02*
X19390Y-14410D01*
X19419Y-14427D01*
X19438Y-14444D01*
X19447Y-14461D01*
G54D11*
X12704Y-10580D02*
X12704Y-10180D01*
X12857Y-10180D01*
X12895Y-10200D01*
X12914Y-10219D01*
X12933Y-10257D01*
X12933Y-10314D01*
X12914Y-10352D01*
X12895Y-10371D01*
X12857Y-10390D01*
X12704Y-10390D01*
X13314Y-10580D02*
X13085Y-10580D01*
X13200Y-10580D02*
X13200Y-10180D01*
X13161Y-10238D01*
X13123Y-10276D01*
X13085Y-10295D01*
X17604Y-10680D02*
X17604Y-10280D01*
X17757Y-10280D01*
X17795Y-10300D01*
X17814Y-10319D01*
X17833Y-10357D01*
X17833Y-10414D01*
X17814Y-10452D01*
X17795Y-10471D01*
X17757Y-10490D01*
X17604Y-10490D01*
X17985Y-10319D02*
X18004Y-10300D01*
X18042Y-10280D01*
X18138Y-10280D01*
X18176Y-10300D01*
X18195Y-10319D01*
X18214Y-10357D01*
X18214Y-10395D01*
X18195Y-10452D01*
X17966Y-10680D01*
X18214Y-10680D01*
G54D15*
X20309Y-16517D02*
X20300Y-16534D01*
X20280Y-16551D01*
X20252Y-16577D01*
X20242Y-16594D01*
X20242Y-16611D01*
X20290Y-16602D02*
X20280Y-16620D01*
X20261Y-16637D01*
X20223Y-16645D01*
X20157Y-16645D01*
X20119Y-16637D01*
X20100Y-16620D01*
X20090Y-16602D01*
X20090Y-16568D01*
X20100Y-16551D01*
X20119Y-16534D01*
X20157Y-16525D01*
X20223Y-16525D01*
X20261Y-16534D01*
X20280Y-16551D01*
X20290Y-16568D01*
X20290Y-16602D01*
X20290Y-16354D02*
X20290Y-16457D01*
X20290Y-16405D02*
X20090Y-16405D01*
X20119Y-16422D01*
X20138Y-16440D01*
X20147Y-16457D01*
X12889Y-18030D02*
X12795Y-18090D01*
X12889Y-18132D02*
X12692Y-18132D01*
X12692Y-18064D01*
X12701Y-18047D01*
X12710Y-18038D01*
X12729Y-18030D01*
X12757Y-18030D01*
X12776Y-18038D01*
X12785Y-18047D01*
X12795Y-18064D01*
X12795Y-18132D01*
X12889Y-17858D02*
X12889Y-17961D01*
X12889Y-17910D02*
X12692Y-17910D01*
X12720Y-17927D01*
X12739Y-17944D01*
X12748Y-17961D01*
X14109Y-18338D02*
X14100Y-18330D01*
X14090Y-18312D01*
X14090Y-18270D01*
X14100Y-18252D01*
X14109Y-18244D01*
X14128Y-18235D01*
X14147Y-18235D01*
X14176Y-18244D01*
X14290Y-18347D01*
X14290Y-18235D01*
X14090Y-18175D02*
X14090Y-18064D01*
X14166Y-18124D01*
X14166Y-18098D01*
X14176Y-18081D01*
X14185Y-18072D01*
X14204Y-18064D01*
X14252Y-18064D01*
X14271Y-18072D01*
X14280Y-18081D01*
X14290Y-18098D01*
X14290Y-18149D01*
X14280Y-18167D01*
X14271Y-18175D01*
X14271Y-17987D02*
X14280Y-17978D01*
X14290Y-17987D01*
X14280Y-17995D01*
X14271Y-17987D01*
X14290Y-17987D01*
X14109Y-17909D02*
X14100Y-17901D01*
X14090Y-17884D01*
X14090Y-17841D01*
X14100Y-17824D01*
X14109Y-17815D01*
X14128Y-17807D01*
X14147Y-17807D01*
X14176Y-17815D01*
X14290Y-17918D01*
X14290Y-17807D01*
X14290Y-17729D02*
X14090Y-17729D01*
X14214Y-17712D02*
X14290Y-17661D01*
X14157Y-17661D02*
X14233Y-17729D01*
X17589Y-18030D02*
X17495Y-18090D01*
X17589Y-18132D02*
X17392Y-18132D01*
X17392Y-18064D01*
X17401Y-18047D01*
X17410Y-18038D01*
X17429Y-18030D01*
X17457Y-18030D01*
X17476Y-18038D01*
X17485Y-18047D01*
X17495Y-18064D01*
X17495Y-18132D01*
X17410Y-17961D02*
X17401Y-17952D01*
X17392Y-17935D01*
X17392Y-17892D01*
X17401Y-17875D01*
X17410Y-17867D01*
X17429Y-17858D01*
X17448Y-17858D01*
X17476Y-17867D01*
X17589Y-17970D01*
X17589Y-17858D01*
X18990Y-18278D02*
X18990Y-18244D01*
X18980Y-18227D01*
X18971Y-18218D01*
X18942Y-18201D01*
X18904Y-18192D01*
X18828Y-18192D01*
X18809Y-18201D01*
X18800Y-18210D01*
X18790Y-18227D01*
X18790Y-18261D01*
X18800Y-18278D01*
X18809Y-18287D01*
X18828Y-18295D01*
X18876Y-18295D01*
X18895Y-18287D01*
X18904Y-18278D01*
X18914Y-18261D01*
X18914Y-18227D01*
X18904Y-18210D01*
X18895Y-18201D01*
X18876Y-18192D01*
X18790Y-18132D02*
X18790Y-18012D01*
X18990Y-18090D01*
X18790Y-17867D02*
X18790Y-17901D01*
X18800Y-17918D01*
X18809Y-17927D01*
X18838Y-17944D01*
X18876Y-17952D01*
X18952Y-17952D01*
X18971Y-17944D01*
X18980Y-17935D01*
X18990Y-17918D01*
X18990Y-17884D01*
X18980Y-17867D01*
X18971Y-17858D01*
X18952Y-17849D01*
X18904Y-17849D01*
X18885Y-17858D01*
X18876Y-17867D01*
X18866Y-17884D01*
X18866Y-17918D01*
X18876Y-17935D01*
X18885Y-17944D01*
X18904Y-17952D01*
X18990Y-17772D02*
X18790Y-17772D01*
X18914Y-17755D02*
X18990Y-17704D01*
X18857Y-17704D02*
X18933Y-17772D01*
X17589Y-15230D02*
X17495Y-15290D01*
X17589Y-15332D02*
X17392Y-15332D01*
X17392Y-15264D01*
X17401Y-15247D01*
X17410Y-15238D01*
X17429Y-15230D01*
X17457Y-15230D01*
X17476Y-15238D01*
X17485Y-15247D01*
X17495Y-15264D01*
X17495Y-15332D01*
X17392Y-15170D02*
X17392Y-15058D01*
X17467Y-15118D01*
X17467Y-15092D01*
X17476Y-15075D01*
X17485Y-15067D01*
X17504Y-15058D01*
X17551Y-15058D01*
X17570Y-15067D01*
X17579Y-15075D01*
X17589Y-15092D01*
X17589Y-15144D01*
X17579Y-15161D01*
X17570Y-15170D01*
X18959Y-15221D02*
X18959Y-15324D01*
X18959Y-15272D02*
X18759Y-15272D01*
X18788Y-15290D01*
X18807Y-15307D01*
X18816Y-15324D01*
X18959Y-15144D02*
X18759Y-15144D01*
X18883Y-15127D02*
X18959Y-15075D01*
X18826Y-15075D02*
X18902Y-15144D01*
X13170Y-15289D02*
X13110Y-15195D01*
X13067Y-15289D02*
X13067Y-15092D01*
X13135Y-15092D01*
X13152Y-15101D01*
X13161Y-15110D01*
X13170Y-15129D01*
X13170Y-15157D01*
X13161Y-15176D01*
X13152Y-15185D01*
X13135Y-15195D01*
X13067Y-15195D01*
X13324Y-15157D02*
X13324Y-15289D01*
X13281Y-15082D02*
X13238Y-15223D01*
X13350Y-15223D01*
X13007Y-16790D02*
X12904Y-16790D01*
X12955Y-16790D02*
X12955Y-16590D01*
X12938Y-16619D01*
X12921Y-16638D01*
X12904Y-16647D01*
X13075Y-16609D02*
X13084Y-16600D01*
X13101Y-16590D01*
X13144Y-16590D01*
X13161Y-16600D01*
X13170Y-16609D01*
X13178Y-16628D01*
X13178Y-16647D01*
X13170Y-16676D01*
X13067Y-16790D01*
X13178Y-16790D01*
X13332Y-16657D02*
X13332Y-16790D01*
X13290Y-16580D02*
X13247Y-16723D01*
X13358Y-16723D01*
X13427Y-16790D02*
X13427Y-16590D01*
X13444Y-16714D02*
X13495Y-16790D01*
X13495Y-16657D02*
X13427Y-16733D01*
X18989Y-19530D02*
X18895Y-19590D01*
X18989Y-19632D02*
X18792Y-19632D01*
X18792Y-19564D01*
X18801Y-19547D01*
X18810Y-19538D01*
X18829Y-19530D01*
X18857Y-19530D01*
X18876Y-19538D01*
X18885Y-19547D01*
X18895Y-19564D01*
X18895Y-19632D01*
X18792Y-19367D02*
X18792Y-19452D01*
X18885Y-19461D01*
X18876Y-19452D01*
X18867Y-19435D01*
X18867Y-19392D01*
X18876Y-19375D01*
X18885Y-19367D01*
X18904Y-19358D01*
X18951Y-19358D01*
X18970Y-19367D01*
X18979Y-19375D01*
X18989Y-19392D01*
X18989Y-19435D01*
X18979Y-19452D01*
X18970Y-19461D01*
X17590Y-19692D02*
X17590Y-19795D01*
X17590Y-19744D02*
X17390Y-19744D01*
X17419Y-19761D01*
X17438Y-19778D01*
X17447Y-19795D01*
X17476Y-19590D02*
X17466Y-19607D01*
X17457Y-19615D01*
X17438Y-19624D01*
X17428Y-19624D01*
X17409Y-19615D01*
X17400Y-19607D01*
X17390Y-19590D01*
X17390Y-19555D01*
X17400Y-19538D01*
X17409Y-19530D01*
X17428Y-19521D01*
X17438Y-19521D01*
X17457Y-19530D01*
X17466Y-19538D01*
X17476Y-19555D01*
X17476Y-19590D01*
X17485Y-19607D01*
X17495Y-19615D01*
X17514Y-19624D01*
X17552Y-19624D01*
X17571Y-19615D01*
X17580Y-19607D01*
X17590Y-19590D01*
X17590Y-19555D01*
X17580Y-19538D01*
X17571Y-19530D01*
X17552Y-19521D01*
X17514Y-19521D01*
X17495Y-19530D01*
X17485Y-19538D01*
X17476Y-19555D01*
X17409Y-19452D02*
X17400Y-19444D01*
X17390Y-19427D01*
X17390Y-19384D01*
X17400Y-19367D01*
X17409Y-19358D01*
X17428Y-19349D01*
X17447Y-19349D01*
X17476Y-19358D01*
X17590Y-19461D01*
X17590Y-19349D01*
X17590Y-19272D02*
X17390Y-19272D01*
X17514Y-19255D02*
X17590Y-19204D01*
X17457Y-19204D02*
X17533Y-19272D01*
G54D11*
X13261Y-24430D02*
X13128Y-24240D01*
X13033Y-24430D02*
X13033Y-24030D01*
X13185Y-24030D01*
X13223Y-24050D01*
X13242Y-24069D01*
X13261Y-24107D01*
X13261Y-24164D01*
X13242Y-24202D01*
X13223Y-24221D01*
X13185Y-24240D01*
X13033Y-24240D01*
X13376Y-24030D02*
X13509Y-24430D01*
X13642Y-24030D01*
X13985Y-24430D02*
X13757Y-24430D01*
X13871Y-24430D02*
X13871Y-24030D01*
X13833Y-24088D01*
X13795Y-24126D01*
X13757Y-24145D01*
X20216Y-24411D02*
X20273Y-24430D01*
X20369Y-24430D01*
X20407Y-24411D01*
X20426Y-24392D01*
X20445Y-24354D01*
X20445Y-24316D01*
X20426Y-24278D01*
X20407Y-24259D01*
X20369Y-24240D01*
X20292Y-24221D01*
X20254Y-24202D01*
X20235Y-24183D01*
X20216Y-24145D01*
X20216Y-24107D01*
X20235Y-24069D01*
X20254Y-24050D01*
X20292Y-24030D01*
X20388Y-24030D01*
X20445Y-24050D01*
X20578Y-24030D02*
X20673Y-24430D01*
X20750Y-24145D01*
X20826Y-24430D01*
X20921Y-24030D01*
X21283Y-24430D02*
X21054Y-24430D01*
X21169Y-24430D02*
X21169Y-24030D01*
X21130Y-24088D01*
X21092Y-24126D01*
X21054Y-24145D01*
G54D15*
X15362Y-14990D02*
X15362Y-15152D01*
X15371Y-15171D01*
X15380Y-15180D01*
X15397Y-15190D01*
X15431Y-15190D01*
X15448Y-15180D01*
X15457Y-15171D01*
X15465Y-15152D01*
X15465Y-14990D01*
X15645Y-15190D02*
X15542Y-15190D01*
X15594Y-15190D02*
X15594Y-14990D01*
X15577Y-15019D01*
X15560Y-15038D01*
X15542Y-15047D01*
X16690Y-19632D02*
X16490Y-19632D01*
X16490Y-19590D01*
X16500Y-19564D01*
X16519Y-19547D01*
X16538Y-19538D01*
X16576Y-19530D01*
X16604Y-19530D01*
X16642Y-19538D01*
X16661Y-19547D01*
X16680Y-19564D01*
X16690Y-19590D01*
X16690Y-19632D01*
X16509Y-19461D02*
X16500Y-19452D01*
X16490Y-19435D01*
X16490Y-19392D01*
X16500Y-19375D01*
X16509Y-19367D01*
X16528Y-19358D01*
X16547Y-19358D01*
X16576Y-19367D01*
X16690Y-19470D01*
X16690Y-19358D01*
X15140Y-19615D02*
X15140Y-19701D01*
X14940Y-19701D01*
X15035Y-19555D02*
X15035Y-19495D01*
X15140Y-19470D02*
X15140Y-19555D01*
X14940Y-19555D01*
X14940Y-19470D01*
X15140Y-19392D02*
X14940Y-19392D01*
X14940Y-19350D01*
X14950Y-19324D01*
X14969Y-19307D01*
X14988Y-19298D01*
X15026Y-19290D01*
X15054Y-19290D01*
X15092Y-19298D01*
X15111Y-19307D01*
X15130Y-19324D01*
X15140Y-19350D01*
X15140Y-19392D01*
X15764Y-18055D02*
X15670Y-18115D01*
X15764Y-18157D02*
X15567Y-18157D01*
X15567Y-18089D01*
X15576Y-18072D01*
X15585Y-18063D01*
X15604Y-18055D01*
X15632Y-18055D01*
X15651Y-18063D01*
X15660Y-18072D01*
X15670Y-18089D01*
X15670Y-18157D01*
X15567Y-17900D02*
X15567Y-17935D01*
X15576Y-17952D01*
X15585Y-17960D01*
X15614Y-17977D01*
X15651Y-17986D01*
X15726Y-17986D01*
X15745Y-17977D01*
X15754Y-17969D01*
X15764Y-17952D01*
X15764Y-17917D01*
X15754Y-17900D01*
X15745Y-17892D01*
X15726Y-17883D01*
X15679Y-17883D01*
X15660Y-17892D01*
X15651Y-17900D01*
X15642Y-17917D01*
X15642Y-17952D01*
X15651Y-17969D01*
X15660Y-17977D01*
X15679Y-17986D01*
X16259Y-18145D02*
X16259Y-18034D01*
X16335Y-18094D01*
X16335Y-18068D01*
X16345Y-18051D01*
X16354Y-18042D01*
X16373Y-18034D01*
X16421Y-18034D01*
X16440Y-18042D01*
X16449Y-18051D01*
X16459Y-18068D01*
X16459Y-18120D01*
X16449Y-18137D01*
X16440Y-18145D01*
X16259Y-17880D02*
X16259Y-17914D01*
X16269Y-17931D01*
X16278Y-17940D01*
X16307Y-17957D01*
X16345Y-17965D01*
X16421Y-17965D01*
X16440Y-17957D01*
X16449Y-17948D01*
X16459Y-17931D01*
X16459Y-17897D01*
X16449Y-17880D01*
X16440Y-17871D01*
X16421Y-17862D01*
X16373Y-17862D01*
X16354Y-17871D01*
X16345Y-17880D01*
X16335Y-17897D01*
X16335Y-17931D01*
X16345Y-17948D01*
X16354Y-17957D01*
X16373Y-17965D01*
M02*
